<svg xmlns="http://www.w3.org/2000/svg" xmlns:xlink="http://www.w3.org/1999/xlink" width="150" height="150" viewBox="0 0 150 150">
  <defs>
    <clipPath id="clip-_150x150_1">
      <rect width="150" height="150"/>
    </clipPath>
  </defs>
  <g id="_150x150_1" data-name="150x150 – 1" clip-path="url(#clip-_150x150_1)">
    <g id="Group_192" data-name="Group 192" transform="translate(-246.336 -129.739)">
      <g id="Group_2" data-name="Group 2" transform="translate(291.524 149.739)">
        <path id="Path_26" data-name="Path 26" d="M341.413,150.9h1.5c1.218,0,1.8.617,1.8,1.941v.5c0,1.233-.368,2.142-1.859,2.142h-.567v3.616h-.872Zm.872,3.847h.488c.93,0,1.065-.57,1.065-1.423v-.439c0-.664-.145-1.244-.989-1.244h-.564Z" transform="translate(-341.413 -150.478)" fill="#0d0d0d"/>
        <path id="Path_27" data-name="Path 27" d="M353.056,158.452v-8.561h.873v8.561Z" transform="translate(-348.853 -149.836)" fill="#0d0d0d"/>
        <path id="Path_28" data-name="Path 28" d="M360.883,161.29c0,.426.007.9.024,1.081h-.81a4.4,4.4,0,0,1-.066-.508,1.006,1.006,0,0,1-1.022.606c-.9,0-1.262-.8-1.262-1.765v-.11a1.753,1.753,0,0,1,1.991-1.914h.271v-.988c0-.566-.1-.924-.586-.924s-.618.37-.618.859v.166h-.861v-.155c0-.873.342-1.613,1.508-1.613,1.09,0,1.431.682,1.431,1.6Zm-.856-1.913h-.3c-.707,0-1.129.3-1.129,1.2v.1c0,.558.173,1.008.661,1.008.575,0,.772-.46.772-1.395Z" transform="translate(-351.85 -153.756)" fill="#0d0d0d"/>
        <path id="Path_29" data-name="Path 29" d="M372.224,160.4v.086c0,1.079-.274,1.986-1.554,1.986-1.22,0-1.518-.845-1.518-2.11v-2.426c0-1.058.385-1.909,1.572-1.909,1.277,0,1.5.937,1.5,1.771v.253h-.868v-.216c0-.567-.094-1.057-.649-1.057-.484,0-.675.364-.675,1.1v2.68c0,.565.107,1.157.662,1.157.494,0,.663-.332.663-1.122v-.2Z" transform="translate(-359.138 -153.756)" fill="#0d0d0d"/>
        <path id="Path_30" data-name="Path 30" d="M380.085,152.2h.873v6.248h-.873Zm.006-2.313h.873v1.267h-.873Z" transform="translate(-366.123 -149.836)" fill="#0d0d0d"/>
        <path id="Path_31" data-name="Path 31" d="M385.672,158.025c0-1.254,0-1.593-.012-1.9h.831a5.139,5.139,0,0,1,.036.625,1.124,1.124,0,0,1,1.145-.723c.684,0,1.232.39,1.232,1.539v4.808h-.873v-4.637c0-.6-.2-.91-.656-.91-.523,0-.83.26-.83,1.442v4.106h-.873Z" transform="translate(-369.686 -153.756)" fill="#0d0d0d"/>
        <path id="Path_32" data-name="Path 32" d="M400.588,162.242c0,1.268-.142,2.337-1.705,2.337a1.391,1.391,0,0,1-1.547-1.555v-.031h.879v.038a.71.71,0,0,0,.715.807c.645,0,.786-.481.786-1.381v-.8a1.011,1.011,0,0,1-1.057.652c-.954,0-1.322-.7-1.322-1.912v-2.509c0-1.1.476-1.858,1.451-1.858a.949.949,0,0,1,1.022.643,4.624,4.624,0,0,1,.048-.545h.755c-.012.345-.024.907-.024,1.645Zm-2.372-4.314v2.392c0,.8.209,1.2.682,1.2.712,0,.825-.712.825-1.553v-1.846c0-.718-.076-1.294-.743-1.294C398.443,156.824,398.215,157.219,398.215,157.929Z" transform="translate(-377.146 -153.756)" fill="#0d0d0d"/>
        <path id="Path_33" data-name="Path 33" d="M414.139,159.094l-1.144-8.2h.932c.252,1.994.661,5.441.73,6.733h.018c.115-1.318.672-4.79.946-6.733h.89c.28,1.956.83,5.218.934,6.692h.031c.091-1.4.53-4.688.782-6.692h.891l-1.243,8.2h-.945c-.268-1.917-.772-5.159-.916-6.517h-.018c-.17,1.477-.663,4.62-.95,6.517Z" transform="translate(-387.152 -150.478)" fill="#0d0d0d"/>
        <path id="Path_34" data-name="Path 34" d="M434.324,157.9v2.614c0,1.356-.641,1.96-1.645,1.96s-1.613-.595-1.613-1.926v-2.669c0-1.2.634-1.85,1.65-1.85C433.767,156.025,434.324,156.71,434.324,157.9Zm-2.379-.026v2.7c0,.681.229,1.117.752,1.117.486,0,.748-.334.748-1.128v-2.7c0-.614-.2-1.06-.746-1.06S431.945,157.189,431.945,157.871Z" transform="translate(-398.699 -153.756)" fill="#0d0d0d"/>
        <path id="Path_35" data-name="Path 35" d="M442.757,158.274c0-1.008.006-1.572-.012-2.127h.832c.012.164.03.557.03.976a1.348,1.348,0,0,1,1.317-1.061v1.078c-.772.007-1.294.452-1.294,1.581V162.4h-.873Z" transform="translate(-406.162 -153.78)" fill="#0d0d0d"/>
        <path id="Path_36" data-name="Path 36" d="M451.466,155.126h.018c.3-.692,1-2.135,1.369-2.922h.919l-1.179,2.289,1.323,3.96h-.955L452,155.341l-.531,1.009v2.1H450.6v-8.561h.867Z" transform="translate(-411.18 -149.836)" fill="#0d0d0d"/>
        <path id="Path_37" data-name="Path 37" d="M460.962,158.355v-5.474H460.3v-.774h.661v-.881c0-.761.287-1.487,1.282-1.487a1.634,1.634,0,0,1,.416.042v.8a1.456,1.456,0,0,0-.281-.026c-.447,0-.544.3-.544.769v.782h.8v.774h-.8v5.474Z" transform="translate(-417.38 -149.739)" fill="#0d0d0d"/>
        <path id="Path_38" data-name="Path 38" d="M471.212,157.9v2.614c0,1.356-.641,1.96-1.645,1.96s-1.613-.595-1.613-1.926v-2.669c0-1.2.635-1.85,1.65-1.85C470.655,156.025,471.212,156.71,471.212,157.9Zm-2.379-.026v2.7c0,.681.229,1.117.752,1.117.485,0,.748-.334.748-1.128v-2.7c0-.614-.2-1.06-.746-1.06S468.833,157.189,468.833,157.871Z" transform="translate(-422.27 -153.756)" fill="#0d0d0d"/>
        <path id="Path_39" data-name="Path 39" d="M479.646,158.274c0-1.008.006-1.572-.012-2.127h.833c.012.164.03.557.03.976a1.348,1.348,0,0,1,1.317-1.061v1.078c-.772.007-1.294.452-1.294,1.581V162.4h-.873Z" transform="translate(-429.733 -153.78)" fill="#0d0d0d"/>
        <path id="Path_40" data-name="Path 40" d="M490.1,160.4v.086c0,1.079-.274,1.986-1.554,1.986-1.22,0-1.518-.845-1.518-2.11v-2.426c0-1.058.385-1.909,1.572-1.909,1.277,0,1.5.937,1.5,1.771v.253h-.868v-.216c0-.567-.094-1.057-.65-1.057-.484,0-.675.364-.675,1.1v2.68c0,.565.107,1.157.662,1.157.494,0,.663-.332.663-1.122v-.2Z" transform="translate(-434.457 -153.756)" fill="#0d0d0d"/>
        <path id="Path_41" data-name="Path 41" d="M498.491,159.427v1.022c0,.622.124,1.269.74,1.269.592,0,.7-.482.7-1.08v-.052h.856v.045c0,.724-.169,1.839-1.554,1.839-1.3,0-1.6-.856-1.6-2.125v-2.328c0-.947.331-1.993,1.613-1.993,1.2,0,1.557.894,1.557,1.994v1.408Zm1.47-.713v-.781c0-.583-.094-1.156-.719-1.156-.59,0-.745.488-.745,1.163v.774Z" transform="translate(-441.235 -153.756)" fill="#0d0d0d"/>
        <path id="Path_42" data-name="Path 42" d="M379.341,193.094l-1.144-8.2h.932c.252,1.994.661,5.441.73,6.733h.018c.115-1.318.672-4.79.946-6.733h.89c.28,1.956.83,5.218.934,6.692h.031c.091-1.4.53-4.688.782-6.692h.891l-1.243,8.2h-.945c-.268-1.917-.772-5.159-.916-6.517h-.018c-.17,1.477-.663,4.62-.949,6.517Z" transform="translate(-364.917 -172.203)" fill="#0d0d0d"/>
        <path id="Path_43" data-name="Path 43" d="M397.124,193.427v1.022c0,.622.124,1.269.74,1.269.592,0,.7-.482.7-1.08v-.052h.856v.045c0,.724-.169,1.839-1.554,1.839-1.3,0-1.6-.856-1.6-2.125v-2.328c0-.947.331-1.993,1.613-1.993,1.205,0,1.558.894,1.558,1.994v1.408Zm1.47-.713v-.781c0-.583-.094-1.156-.72-1.156-.59,0-.746.488-.746,1.163v.774Z" transform="translate(-376.464 -175.481)" fill="#0d0d0d"/>
        <path id="Path_44" data-name="Path 44" d="M407.675,192.452v-8.561h.873v8.561Z" transform="translate(-383.753 -171.561)" fill="#0d0d0d"/>
        <path id="Path_45" data-name="Path 45" d="M413.284,192.452v-8.561h.873v8.561Z" transform="translate(-387.337 -171.561)" fill="#0d0d0d"/>
        <path id="Path_46" data-name="Path 46" d="M418.872,183.891h.873v2.887a1.124,1.124,0,0,1,1.115-.673c.9,0,1.27.732,1.27,1.811v2.41c0,1.277-.265,2.211-1.409,2.211a1,1,0,0,1-1.035-.684,5.345,5.345,0,0,1-.036.6h-.79c.018-.353.013-.912.013-1.652Zm2.379,6.586V188.05c0-.718-.167-1.146-.69-1.146-.708,0-.823.673-.823,1.534v1.92c0,.946.226,1.38.787,1.38C421,191.738,421.25,191.344,421.25,190.477Z" transform="translate(-390.899 -171.561)" fill="#0d0d0d"/>
        <path id="Path_47" data-name="Path 47" d="M431.053,193.427v1.022c0,.622.124,1.269.74,1.269.593,0,.7-.482.7-1.08v-.052h.856v.045c0,.724-.169,1.839-1.554,1.839-1.3,0-1.6-.856-1.6-2.125v-2.328c0-.947.331-1.993,1.613-1.993,1.205,0,1.558.894,1.558,1.994v1.408Zm1.471-.713v-.781c0-.583-.094-1.156-.719-1.156-.59,0-.746.488-.746,1.163v.774Z" transform="translate(-398.144 -175.481)" fill="#0d0d0d"/>
        <path id="Path_48" data-name="Path 48" d="M441.537,186.2h.873v6.248h-.873Zm.006-2.313h.873v1.267h-.873Z" transform="translate(-405.39 -171.561)" fill="#0d0d0d"/>
        <path id="Path_49" data-name="Path 49" d="M447.125,192.025c0-1.254,0-1.593-.013-1.9h.831a5.133,5.133,0,0,1,.036.625,1.124,1.124,0,0,1,1.145-.723c.684,0,1.232.39,1.232,1.539v4.808h-.873v-4.637c0-.6-.2-.911-.656-.911-.523,0-.83.26-.83,1.442v4.106h-.873Z" transform="translate(-408.952 -175.481)" fill="#0d0d0d"/>
        <path id="Path_50" data-name="Path 50" d="M462.039,196.242c0,1.268-.142,2.337-1.705,2.337a1.391,1.391,0,0,1-1.547-1.555v-.031h.879v.038a.71.71,0,0,0,.715.807c.645,0,.786-.481.786-1.381v-.8a1.011,1.011,0,0,1-1.057.652c-.954,0-1.322-.7-1.322-1.912v-2.509c0-1.1.476-1.858,1.451-1.858a.949.949,0,0,1,1.022.643,4.523,4.523,0,0,1,.048-.545h.755c-.012.345-.024.907-.024,1.645Zm-2.372-4.313v2.392c0,.8.209,1.2.682,1.2.712,0,.825-.712.825-1.553v-1.846c0-.718-.076-1.294-.743-1.294C459.9,190.824,459.667,191.219,459.667,191.929Z" transform="translate(-416.412 -175.481)" fill="#0d0d0d"/>
      </g>
      <path id="Path_51" data-name="Path 51" d="M331.068,191.86H320.545v76.679h5.913v-40.6h4.61a7.593,7.593,0,0,0,7.589-7.589v-20.9A7.531,7.531,0,0,0,331.068,191.86Zm1.354,28.462A1.661,1.661,0,0,1,330.746,222h-4.61V197.75h4.61a1.6,1.6,0,0,1,1.675,1.676Z" transform="translate(-36.555 -26.914)" fill="#fff"/>
      <path id="Path_52" data-name="Path 52" d="M277.838,258.427h5.914V304.47a7.592,7.592,0,0,1-7.589,7.589h-.986a7.592,7.592,0,0,1-7.589-7.589V258.427H273.5V304.47a1.661,1.661,0,0,0,1.675,1.676h.986a1.661,1.661,0,0,0,1.676-1.676Z" transform="translate(-2.717 -69.449)" fill="#fff"/>
      <path id="Path_53" data-name="Path 53" d="M273.586,254.175H279.5v46.043a7.592,7.592,0,0,1-7.589,7.589h-.986a7.592,7.592,0,0,1-7.589-7.589V254.175h5.914v46.043a1.661,1.661,0,0,0,1.675,1.676h.986a1.661,1.661,0,0,0,1.676-1.676Z" transform="translate(0 -66.732)" fill="#f40f34"/>
      <path id="Path_54" data-name="Path 54" d="M326.816,187.608H316.293v76.679h5.913v-40.6h4.61a7.592,7.592,0,0,0,7.589-7.589V195.2A7.531,7.531,0,0,0,326.816,187.608Zm1.354,28.462a1.661,1.661,0,0,1-1.675,1.675h-4.61V193.5h4.61a1.6,1.6,0,0,1,1.675,1.676Z" transform="translate(-33.838 -24.197)" fill="#f40f34"/>
      <path id="Path_55" data-name="Path 55" d="M357.169,298.657v5.42h-5.322v8.295h5.322v5.421h-5.322V336.78h-5.913V298.657Z" transform="translate(-52.778 -95.155)" fill="#f40f34"/>
      <path id="Path_56" data-name="Path 56" d="M395.625,257.509a9.141,9.141,0,0,0-3.055-6.012,7.468,7.468,0,0,0,5.027-7.1V232.009a7.53,7.53,0,0,0-7.589-7.589h-8.476v64.924h5.913V254.159a3.566,3.566,0,0,1,2.267,2.956l3.154,32.229h6.012Zm-6.3-13.6a1.66,1.66,0,0,1-1.676,1.675h-2.562V227.868h2.563a1.6,1.6,0,0,1,1.676,1.676Z" transform="translate(-75.524 -47.719)" fill="#f40f34"/>
      <path id="Path_57" data-name="Path 57" d="M440.606,273.786h-.887a7.592,7.592,0,0,0-7.589,7.589v32.909a7.592,7.592,0,0,0,7.589,7.589h.887a7.53,7.53,0,0,0,7.589-7.589V281.375A7.53,7.53,0,0,0,440.606,273.786Zm.224,39.242a1.6,1.6,0,0,1-1.676,1.676h-.887a1.661,1.661,0,0,1-1.676-1.676V280.118a1.661,1.661,0,0,1,1.676-1.675h.887a1.6,1.6,0,0,1,1.676,1.675Z" transform="translate(-107.855 -79.263)"/>
      <path id="Path_58" data-name="Path 58" d="M493.52,217.908h5.914v67.275h-5.519l-7.688-40.157,1.084,40.157H481.4V217.908h5.42l7.688,42.508Z" transform="translate(-139.336 -43.558)" fill="#f40f34"/>
      <path id="Path_59" data-name="Path 59" d="M535.391,264.7H553.6v8.491h-4.1v41.892H539.493V273.19h-4.1Z" transform="translate(-173.837 -73.457)" fill="#f40f34"/>
      <path id="Path_60" data-name="Path 60" d="M352.917,294.4v5.42H347.6v8.295h5.322v5.421H347.6v18.986h-5.913V294.4Z" transform="translate(-50.061 -92.438)"/>
      <path id="Path_61" data-name="Path 61" d="M391.373,253.257a9.143,9.143,0,0,0-3.055-6.012,7.468,7.468,0,0,0,5.026-7.1V227.757a7.53,7.53,0,0,0-7.589-7.589h-8.476v64.924h5.913V249.907a3.567,3.567,0,0,1,2.267,2.956l3.154,32.229h6.012Zm-4.766-12.068a1.66,1.66,0,0,1-1.676,1.675h-2.563V225.151h2.563a1.6,1.6,0,0,1,1.676,1.676Z" transform="translate(-72.807 -45.002)" fill="#171717"/>
      <path id="Path_62" data-name="Path 62" d="M436.354,269.534h-.887a7.592,7.592,0,0,0-7.589,7.589v32.909a7.592,7.592,0,0,0,7.589,7.589h.887a7.53,7.53,0,0,0,7.589-7.589V277.123A7.53,7.53,0,0,0,436.354,269.534Zm1.759,40.777a1.6,1.6,0,0,1-1.676,1.676h-.887a1.661,1.661,0,0,1-1.676-1.676V277.4a1.661,1.661,0,0,1,1.676-1.675h.887a1.6,1.6,0,0,1,1.676,1.675Z" transform="translate(-105.138 -76.546)"/>
      <path id="Path_63" data-name="Path 63" d="M489.268,213.656h5.914v67.275h-5.519l-7.688-40.157,1.084,40.157h-5.913V213.656h5.42l7.688,42.508Z" transform="translate(-136.619 -40.841)"/>
      <path id="Path_64" data-name="Path 64" d="M531.139,260.447h18.21v8.491h-4.1v41.892H535.241V268.938h-4.1Z" transform="translate(-171.12 -70.74)"/>
      <path id="Path_197" data-name="Path 197" d="M1.939-5.925v3.164H1.15v-8.082h2a1.619,1.619,0,0,1,1.376.674,2.945,2.945,0,0,1,.5,1.8,2.93,2.93,0,0,1-.477,1.8,1.643,1.643,0,0,1-1.343.652Zm0-.871H3.151A.921.921,0,0,0,3.957-7.2a2.027,2.027,0,0,0,.28-1.16,2.089,2.089,0,0,0-.289-1.166.9.9,0,0,0-.793-.438H1.939ZM8.291-2.762a2.708,2.708,0,0,1-.1-.655,1.19,1.19,0,0,1-1.035.766,1.183,1.183,0,0,1-.99-.458A2.061,2.061,0,0,1,5.812-4.4a2.1,2.1,0,0,1,.483-1.454A1.721,1.721,0,0,1,7.619-6.4h.561v-.638a1.226,1.226,0,0,0-.185-.766.686.686,0,0,0-.565-.228.69.69,0,0,0-.561.264,1.022,1.022,0,0,0-.216.669H5.889a1.929,1.929,0,0,1,.211-.88A1.68,1.68,0,0,1,6.67-8.64a1.407,1.407,0,0,1,.8-.239,1.323,1.323,0,0,1,1.089.458,2.105,2.105,0,0,1,.382,1.335v3.031a4.625,4.625,0,0,0,.147,1.2v.089ZM7.274-3.544a.854.854,0,0,0,.535-.2,1.157,1.157,0,0,0,.371-.5V-5.676H7.748a1.225,1.225,0,0,0-.858.314,1.119,1.119,0,0,0-.315.846,1.331,1.331,0,0,0,.16.741A.609.609,0,0,0,7.274-3.544Zm4.774-4.3a1.456,1.456,0,0,0-.345-.039q-.586,0-.819.827v4.3H10.12V-8.767h.742l.013.611q.306-.722.867-.722a.547.547,0,0,1,.3.078Zm1.975-2.376v1.454h.7v.794h-.7v3.724a1.255,1.255,0,0,0,.091.538.319.319,0,0,0,.31.183.772.772,0,0,0,.306-.067l-.009.833a1.333,1.333,0,0,1-.53.111.752.752,0,0,1-.69-.416,2.4,2.4,0,0,1-.237-1.177v-3.73h-.712v-.794h.712v-1.454Zm3.472,4.18a3.782,3.782,0,0,1,.494-2.073,1.5,1.5,0,0,1,1.3-.763,1.5,1.5,0,0,1,1.3.744A3.694,3.694,0,0,1,21.1-6.109v.633a3.769,3.769,0,0,1-.492,2.065,1.5,1.5,0,0,1-1.311.76A1.5,1.5,0,0,1,18-3.389a3.668,3.668,0,0,1-.507-2Zm.763.566a3.127,3.127,0,0,0,.282,1.457.851.851,0,0,0,.761.53q1.009,0,1.039-1.876v-.677A3.127,3.127,0,0,0,20.056-7.5a.855.855,0,0,0-.763-.536.846.846,0,0,0-.753.536,3.133,3.133,0,0,0-.282,1.451Zm4.166,2.714V-7.974h-.608v-.794h.608v-.694a2.6,2.6,0,0,1,.36-1.429,1.116,1.116,0,0,1,.981-.513,1.222,1.222,0,0,1,.461.094l-.039.833a1.192,1.192,0,0,0-.349-.05q-.651,0-.651,1.193v.566h.8v.794h-.8v5.212Zm8.526-2.564a3.516,3.516,0,0,1-.567,1.987,1.712,1.712,0,0,1-1.455.688,1.689,1.689,0,0,1-1.5-.924,4.844,4.844,0,0,1-.556-2.506V-7.546a4.682,4.682,0,0,1,.571-2.492A1.758,1.758,0,0,1,29-10.954a1.625,1.625,0,0,1,1.408.7,3.654,3.654,0,0,1,.541,2.007h-.8a3.021,3.021,0,0,0-.323-1.41A.917.917,0,0,0,29-10.077a1.076,1.076,0,0,0-.988.647,4.129,4.129,0,0,0-.345,1.9v1.482a4.387,4.387,0,0,0,.321,1.882,1.012,1.012,0,0,0,.938.655,1,1,0,0,0,.888-.394,2.987,2.987,0,0,0,.336-1.415Zm3.364,2.564a2.708,2.708,0,0,1-.1-.655,1.19,1.19,0,0,1-1.035.766,1.183,1.183,0,0,1-.99-.458A2.061,2.061,0,0,1,31.833-4.4a2.1,2.1,0,0,1,.483-1.454A1.721,1.721,0,0,1,33.64-6.4H34.2v-.638a1.226,1.226,0,0,0-.185-.766.686.686,0,0,0-.565-.228.69.69,0,0,0-.561.264,1.022,1.022,0,0,0-.216.669h-.763a1.929,1.929,0,0,1,.211-.88,1.68,1.68,0,0,1,.569-.658,1.407,1.407,0,0,1,.8-.239,1.323,1.323,0,0,1,1.089.458,2.105,2.105,0,0,1,.382,1.335v3.031a4.625,4.625,0,0,0,.147,1.2v.089ZM33.3-3.544a.854.854,0,0,0,.535-.2,1.157,1.157,0,0,0,.371-.5V-5.676H33.77a1.225,1.225,0,0,0-.858.314,1.119,1.119,0,0,0-.315.846,1.331,1.331,0,0,0,.16.741A.609.609,0,0,0,33.3-3.544Zm3.847-6.677v1.454h.7v.794h-.7v3.724a1.255,1.255,0,0,0,.091.538.319.319,0,0,0,.31.183.772.772,0,0,0,.306-.067l-.009.833a1.333,1.333,0,0,1-.53.111.752.752,0,0,1-.69-.416,2.4,2.4,0,0,1-.237-1.177v-3.73h-.712v-.794h.712v-1.454Zm4.011,7.46a2.707,2.707,0,0,1-.1-.655,1.19,1.19,0,0,1-1.035.766,1.183,1.183,0,0,1-.99-.458A2.061,2.061,0,0,1,38.673-4.4a2.1,2.1,0,0,1,.483-1.454A1.721,1.721,0,0,1,40.48-6.4h.561v-.638a1.226,1.226,0,0,0-.185-.766.686.686,0,0,0-.565-.228.69.69,0,0,0-.561.264,1.022,1.022,0,0,0-.216.669H38.75a1.929,1.929,0,0,1,.211-.88,1.68,1.68,0,0,1,.569-.658,1.407,1.407,0,0,1,.8-.239,1.323,1.323,0,0,1,1.089.458A2.105,2.105,0,0,1,41.8-7.085v3.031a4.625,4.625,0,0,0,.147,1.2v.089Zm-1.018-.783a.854.854,0,0,0,.535-.2,1.157,1.157,0,0,0,.371-.5V-5.676h-.431a1.225,1.225,0,0,0-.858.314,1.119,1.119,0,0,0-.315.846,1.331,1.331,0,0,0,.16.741A.609.609,0,0,0,40.135-3.544Zm3.67.783h-.763v-8.526H43.8ZM46.28-4.393l.85-4.374h.811L46.414-1.912a2.957,2.957,0,0,1-.487,1.174.9.9,0,0,1-.716.4,1.208,1.208,0,0,1-.4-.089v-.833l.168.022a.673.673,0,0,0,.52-.2,1.58,1.58,0,0,0,.3-.7l.151-.672L44.585-8.767h.832Zm4.67.094a.834.834,0,0,0-.185-.544,2.7,2.7,0,0,0-.716-.533,4.4,4.4,0,0,1-.869-.561,1.522,1.522,0,0,1-.377-.53,1.817,1.817,0,0,1-.125-.708,1.807,1.807,0,0,1,.416-1.218,1.337,1.337,0,0,1,1.063-.486,1.34,1.34,0,0,1,1.1.511,2.014,2.014,0,0,1,.414,1.31h-.759a1.13,1.13,0,0,0-.211-.691.644.644,0,0,0-.539-.286.658.658,0,0,0-.528.225.9.9,0,0,0-.192.6.774.774,0,0,0,.14.483,2.433,2.433,0,0,0,.675.483,3.316,3.316,0,0,1,1.156.835,1.677,1.677,0,0,1,.306,1.035A1.811,1.811,0,0,1,51.3-3.12a1.428,1.428,0,0,1-1.121.469,1.47,1.47,0,0,1-1.182-.538,2.049,2.049,0,0,1-.453-1.365h.768a1.285,1.285,0,0,0,.237.783.757.757,0,0,0,.63.283.74.74,0,0,0,.578-.219A.848.848,0,0,0,50.95-4.3Zm2.756-5.922v1.454h.7v.794h-.7v3.724a1.255,1.255,0,0,0,.091.538.319.319,0,0,0,.31.183.772.772,0,0,0,.306-.067l-.009.833a1.333,1.333,0,0,1-.53.111.752.752,0,0,1-.69-.416,2.4,2.4,0,0,1-.237-1.177v-3.73h-.712v-.794h.712v-1.454Zm7.668,6.455-.138.222a1.961,1.961,0,0,1-1.742.894,1.822,1.822,0,0,1-1.6-.869A4.47,4.47,0,0,1,57.3-5.975V-7.563a4.886,4.886,0,0,1,.528-2.545,1.741,1.741,0,0,1,1.581-.846,1.687,1.687,0,0,1,1.4.644,3.141,3.141,0,0,1,.558,1.837h-.789a2.426,2.426,0,0,0-.326-1.179.939.939,0,0,0-.843-.425,1.054,1.054,0,0,0-.992.569A4.025,4.025,0,0,0,58.1-7.69v1.649a3.921,3.921,0,0,0,.362,1.873,1.135,1.135,0,0,0,1.039.652,1.189,1.189,0,0,0,.97-.4l.116-.139V-5.92H59.437v-.866h1.936Zm3.109-4.08a1.456,1.456,0,0,0-.345-.039q-.586,0-.819.827v4.3h-.763V-8.767H63.3l.013.611q.306-.722.867-.722a.547.547,0,0,1,.3.078ZM65-6.042a3.782,3.782,0,0,1,.494-2.073,1.5,1.5,0,0,1,1.3-.763,1.5,1.5,0,0,1,1.3.744,3.694,3.694,0,0,1,.507,2.026v.633a3.769,3.769,0,0,1-.492,2.065,1.5,1.5,0,0,1-1.311.76,1.5,1.5,0,0,1-1.3-.738,3.668,3.668,0,0,1-.507-2Zm.763.566a3.127,3.127,0,0,0,.282,1.457.851.851,0,0,0,.761.53q1.009,0,1.039-1.876v-.677A3.127,3.127,0,0,0,67.558-7.5a.855.855,0,0,0-.763-.536.846.846,0,0,0-.753.536,3.133,3.133,0,0,0-.282,1.451Zm6.21,2.187a1.215,1.215,0,0,1-1.108.638,1.04,1.04,0,0,1-.957-.563,3.377,3.377,0,0,1-.328-1.64V-8.767h.759v3.841q0,1.4.656,1.4a.982.982,0,0,0,.957-.8V-8.767h.763v6.006h-.724Zm5.261-2.187a4.417,4.417,0,0,1-.4,2.126,1.241,1.241,0,0,1-1.128.7,1.184,1.184,0,0,1-1.082-.683V-.453h-.759V-8.767h.69l.039.666a1.2,1.2,0,0,1,1.1-.777,1.232,1.232,0,0,1,1.147.688,4.474,4.474,0,0,1,.392,2.059Zm-.759-.561a3.478,3.478,0,0,0-.242-1.49.811.811,0,0,0-.776-.48q-.548,0-.832.7v3.125q.28.688.841.688a.8.8,0,0,0,.761-.48,3.417,3.417,0,0,0,.248-1.468Z" transform="translate(281.829 259.734)" fill="#0d0d0d"/>
    </g>
  </g>
</svg>
