<svg xmlns="http://www.w3.org/2000/svg" width="71.04" height="71.04" viewBox="0 0 71.04 71.04"><g id="Group_44238" data-name="Group 44238" transform="translate(-94.75 -1044.484)"><g id="Group_44222" data-name="Group 44222" transform="translate(-1050 -5474.898)"><g id="Group_17405" data-name="Group 17405" transform="translate(1144.75 6519.383)"><g id="Group_973" data-name="Group 973"><g id="Rectangle_821" data-name="Rectangle 821" fill="none" stroke="#000" stroke-width="1"><rect width="71.04" height="71.04" rx="11" stroke="none"></rect><rect x="0.5" y="0.5" width="70.04" height="70.04" rx="10.5" fill="none"></rect></g></g></g></g><path id="social-care" d="M30.29,41.122h10c.8-.8,1.674-1.628,2.586-2.472a81.723,81.723,0,0,0,5.842-5.929,11.9,11.9,0,0,0,3.243-6.161c.132-.488.278-1.035.456-1.715l1.195-4.2V20.6c.638-1.87.689-3.106.42-3.817a.88.88,0,0,0-.306-.456.547.547,0,0,0-.356-.073,1.642,1.642,0,0,0-.985.575l-3.534,8.451a.912.912,0,0,1-.123.214,4.611,4.611,0,0,1-.862,1.1l-6.294,7.019A.922.922,0,0,1,40.2,32.375l6.284-7.019c0-.032.055-.064.082-.1a1.979,1.979,0,0,0,.748-1.774.721.721,0,0,0-.2-.365.561.561,0,0,0-.342-.146h0c-.561-.059-1.368.351-2.394,1.546h0a.634.634,0,0,1-.1.1l-2.44,2.153h0a20.732,20.732,0,0,1-5.86,4.187c-.429.223-.912.456-1.5.794a6.047,6.047,0,0,0-.68.456c-.242.178-.456.369-.684.552a6.344,6.344,0,0,0-2,2.5,13.645,13.645,0,0,0-.634,3.334c-.068.575-.119,1.149-.16,1.715,0,.283-.032.556-.046.821ZM11.861,20.262c.388-5.017,1.332-4.456,5.6-7.133,1.181,3.065,6.841,3.27,8.09,0,3.708,2.376,5.55,1.92,5.523,7.133-4.405,2.08-12.724,2.572-19.2,0Zm6.955-7.37A1.874,1.874,0,0,1,19,12.231a2.7,2.7,0,0,1-1.053-1.961H17.89a.762.762,0,0,1-.383-.1,1.067,1.067,0,0,1-.424-.511c-.192-.456-.347-1.624.141-1.961l-.091-.059V7.511c0-.237,0-.524-.027-.825,0-1.1-.041-2.444-.912-2.714l-.379-.114.251-.31a14.507,14.507,0,0,1,2.18-2.257A5.664,5.664,0,0,1,20.836.04a3.074,3.074,0,0,1,2.5.7,4.716,4.716,0,0,1,.675.675A2.837,2.837,0,0,1,26,2.585,4.1,4.1,0,0,1,26.655,3.9a4.561,4.561,0,0,1,.173,1.5,3.6,3.6,0,0,1-1.04,2.422.711.711,0,0,1,.324.082.8.8,0,0,1,.283.99c-.1.3-.214.652-.333.944-.137.4-.342.456-.739.429A2.583,2.583,0,0,1,24.238,12.3l.137.483c-.383,1.87-4.474,2.07-5.578.1Zm11.333-1.724a3.165,3.165,0,0,1-1.487-.912c.994-.374,1.455-1.368,1.519-3.138.046-1.3-.223-2.28.223-3.58A3.938,3.938,0,0,1,36.369,1.6c1.423-.15,2.859.584,3.192,2.782.233,1.642-.26,3.074.26,4.588a2.33,2.33,0,0,0,1.213,1.437,3.493,3.493,0,0,1-1.624.784,16.491,16.491,0,0,1-2.563.283v.771l.912,1.427-2.882,2.257-2.919-2.253.638-1.368v-.835a10.913,10.913,0,0,1-2.449-.31Zm9.212,3.712a7,7,0,0,0-1.332-2.075c1.081.42,4.7,1.323,5.263,2.376.629,1.186.538,3.822.876,5.08-2.777,1.122-7.534,1.569-12.177,1.186a1.491,1.491,0,0,0,.588-1.181c0-2.923-.456-4.392-1.409-5.409h.515l3.074,2.454,3.233-2.454,1.368.032Zm-9.869-1.263c.634-.246,1.368-.5,2.157-.812a5.842,5.842,0,0,0-1.063,1.528A8.911,8.911,0,0,0,29.492,13.617Zm-3.735,27.5h-10c-.8-.8-1.678-1.628-2.572-2.472a81.716,81.716,0,0,1-5.842-5.929,11.769,11.769,0,0,1-3.238-6.175c-.132-.488-.278-1.035-.456-1.715l-1.213-4.2v-.046c-.638-1.87-.689-3.106-.42-3.817a.853.853,0,0,1,.306-.456.547.547,0,0,1,.356-.073,1.642,1.642,0,0,1,.971.588L7.2,25.278a.912.912,0,0,0,.123.214,4.7,4.7,0,0,0,.857,1.1l6.3,7.019a.922.922,0,0,0,1.368-1.236L9.581,25.356a.566.566,0,0,0-.087-.1,1.979,1.979,0,0,1-.743-1.779.725.725,0,0,1,.2-.36.547.547,0,0,1,.342-.146h0c.556-.055,1.368.356,2.394,1.551l.1.091,2.44,2.153h0a20.732,20.732,0,0,0,5.851,4.187c.429.223.912.456,1.491.794a5.705,5.705,0,0,1,.684.456c.242.178.456.369.684.552a6.385,6.385,0,0,1,2,2.5,13.645,13.645,0,0,1,.616,3.329c.064.575.119,1.149.155,1.715,0,.283.036.556.05.821Zm-12.313.319a.912.912,0,0,0-.233.611v5.541a.912.912,0,0,0,.912.912H26.71a.912.912,0,0,0,.912-.912V42c0-.593-.041-1.231-.082-1.824s-.1-1.209-.164-1.824a14.7,14.7,0,0,0-.757-3.808A8.058,8.058,0,0,0,24.1,31.317c-.246-.21-.5-.42-.762-.62a7.753,7.753,0,0,0-.912-.6c-.547-.3-1.058-.566-1.523-.807a19.291,19.291,0,0,1-5.391-3.867l-.059-.05-2.4-2.116c-1.455-1.7-2.878-2.28-3.972-2.148h0a2.417,2.417,0,0,0-1.368.584l-2.39-5.733h0a1.054,1.054,0,0,0-.141-.237,3.58,3.58,0,0,0-2.321-1.368,2.39,2.39,0,0,0-1.551.369A2.7,2.7,0,0,0,.268,16.093c-.4,1.072-.392,2.736.392,5.017l1.167,4.223c.173.607.328,1.181.456,1.7a13.086,13.086,0,0,0,3.648,6.9A83.359,83.359,0,0,0,11.916,40l1.519,1.446Zm1.779,1.546a1.053,1.053,0,0,0,.379,0H25.78v3.648H15.053V42.987Zm27.4-1.546a.935.935,0,0,1,.228.611v5.541a.912.912,0,0,1-.912.912h-12.6a.912.912,0,0,1-.912-.912V42a.821.821,0,0,1,0-.1q0-.912.068-1.724c.041-.607.1-1.209.169-1.824a14.7,14.7,0,0,1,.757-3.808,8.058,8.058,0,0,1,2.508-3.211c.246-.21.5-.42.762-.62a7.753,7.753,0,0,1,.912-.6c.547-.3,1.058-.566,1.523-.807a19.291,19.291,0,0,0,5.432-3.886l.059-.05L43,23.258c1.455-1.7,2.878-2.28,3.972-2.148h0a2.417,2.417,0,0,1,1.368.584l2.39-5.733h0a1.054,1.054,0,0,1,.141-.237,3.58,3.58,0,0,1,2.321-1.368,2.39,2.39,0,0,1,1.551.369,2.7,2.7,0,0,1,1.035,1.368c.4,1.072.392,2.736-.392,5.017L54.2,25.283c-.173.607-.328,1.181-.456,1.7a13.086,13.086,0,0,1-3.648,6.9A83.354,83.354,0,0,1,44.131,40l-1.519,1.446Zm-1.779,1.546a1.058,1.058,0,0,1-.379,0h-10.2v3.648H40.98V42.987Z" transform="translate(102.246 1055.754)" fill-rule="evenodd"></path></g></svg>