<svg xmlns="http://www.w3.org/2000/svg" width="71.04" height="71.04" viewBox="0 0 71.04 71.04"><g id="Group_44236" data-name="Group 44236" transform="translate(-94.75 -1235.354)"><g id="noun-partnership-2970246" transform="translate(104.967 1254.973)"><path id="Path_16378" data-name="Path 16378" d="M98.622,118.9l-6.864,9.738c-.319.479-.479,1.118-.16,1.437l2.714,2.873c-.8,2.395.639,3.672,2.235,3.512-.479,2.395.639,2.873,1.916,3.193-.639,2.235,1.437,3.991,3.831,2.873,1.118,2.554,5.747,2.235,6.545,1.118H109l-1.6-1.6c-.16-.16,0-.479.319-.319l2.395,2.395a3.419,3.419,0,0,0,4.31-1.437l-5.108-5.108c-.16-.16,0-.479.319-.319l5.907,5.907c1.756.8,3.512-.639,4.31-2.554l-5.108-5.108c-.16-.16,0-.479.319-.319l5.268,5.268a2.884,2.884,0,0,0,2.714-4.63l-1.437-1.437,3.672-3.193c.639-.479.639-.8.319-1.437l-4.47-9.1c-.479-.639-.639-1.118-1.437-1.277l-5.108-1.756a3.545,3.545,0,0,0-2.554-.16,36.508,36.508,0,0,0-5.907,1.916c-3.033-.958-4.47-.639-7.5-.479Zm23.308-2.873,4.63-2.395,7.5,14.846-4.31,2.075a2.195,2.195,0,0,1-3.033-.958l-5.587-11.015a1.86,1.86,0,0,1,.8-2.554Zm-24.744-.319-4.151-3.033-9.578,13.569,3.991,2.873a2.51,2.51,0,0,0,3.193-.639l7.024-10.058a1.86,1.86,0,0,0-.479-2.714Zm-8.78,9.259c-.479-.16-1.118-.16-1.277.319a.934.934,0,0,0,.16,1.277,1.04,1.04,0,0,0,1.437-.319,1.325,1.325,0,0,0-.319-1.277Zm41.027,1.437a1.069,1.069,0,0,1,1.277.479.964.964,0,1,1-1.756.8A1.069,1.069,0,0,1,129.432,126.4Zm-32.406,6.385c.639.16,1.437.8.8,1.437l-.639.639c-.8.479-1.916.16-1.437-1.437.16-.479.479-.958,1.277-.639Zm3.831,3.512-1.916,1.916c-1.277,0-1.118-1.277-.8-2.075l1.118-1.277c.8-.8,2.554.479,1.6,1.437Zm2.873,2.873-1.756,1.756c-1.916.958-2.395-.479-1.916-1.756l1.916-1.756C102.932,136.3,104.848,138.056,103.731,139.174Zm2.235,2.873-.8.8a1.429,1.429,0,0,1-1.6-1.277l.639-.8c.479-.16,1.6-.319,1.756,1.277Zm14.846-8.461-9.419-9.259c-.16-1.437-1.118-1.437-2.714-1.277,0,3.672-1.277,5.907-4.31,7.024a1.2,1.2,0,0,1-1.437-1.756c3.352-4.949,1.437-5.268,3.033-7.663,2.075-.639,4.151-1.437,6.385-2.075a2.652,2.652,0,0,1,1.756.16l4.949,1.756c.479.319.8.479.958.958L124,129.595a1.27,1.27,0,0,1-.319,1.437c-.958.8-1.916,1.756-2.873,2.554Z" transform="translate(-83.457 -112.674)" fill-rule="evenodd"></path></g><g id="Group_44224" data-name="Group 44224" transform="translate(-1050 -5284.029)"><g id="Group_17405" data-name="Group 17405" transform="translate(1144.75 6519.383)"><g id="Group_973" data-name="Group 973"><g id="Rectangle_821" data-name="Rectangle 821" fill="none" stroke="#000" stroke-width="1"><rect width="71.04" height="71.04" rx="11" stroke="none"></rect><rect x="0.5" y="0.5" width="70.04" height="70.04" rx="10.5" fill="none"></rect></g></g></g></g></g></svg>