<svg xmlns="http://www.w3.org/2000/svg" width="71.04" height="71.04" viewBox="0 0 71.04 71.04"><g id="Group_44237" data-name="Group 44237" transform="translate(-94.75 -1139.354)"><g id="noun-india-76804_1_" data-name="noun-india-76804 (1)" transform="translate(107.723 1149.094)"><path id="Path_16379" data-name="Path 16379" d="M144.08,38.4a1.022,1.022,0,1,0,1.012,1.031A1.021,1.021,0,0,0,144.08,38.4Zm2.831.038a1.022,1.022,0,1,0-.019,2.043,1,1,0,0,0,1.031-.993A1.037,1.037,0,0,0,146.911,38.439Zm5.662.094a1.037,1.037,0,0,0-1.05,1.012,1.022,1.022,0,1,0,2.043.019A1,1,0,0,0,152.573,38.532Zm-5.7,2.812a1.021,1.021,0,0,0-1.031,1.012,1,1,0,0,0,.993,1.031,1.021,1.021,0,0,0,1.05-.993A1.037,1.037,0,0,0,146.874,41.344Zm2.831.056a1.021,1.021,0,0,0-1.05.993,1.037,1.037,0,0,0,1.012,1.05,1.02,1.02,0,0,0,1.031-1.012A1,1,0,0,0,149.7,41.4Zm2.812.038a1.022,1.022,0,1,0,1.012,1.031A1.021,1.021,0,0,0,152.517,41.438Zm-8.511,2.774a1.037,1.037,0,0,0-1.05,1.012,1.031,1.031,0,0,0,2.062.038A1.037,1.037,0,0,0,144.006,44.212Zm2.831.038a1.031,1.031,0,0,0-.038,2.062,1.031,1.031,0,0,0,.038-2.062Zm2.812.056a1,1,0,0,0-1.031.993,1.037,1.037,0,0,0,1.012,1.05,1.022,1.022,0,1,0,.019-2.043Zm2.831.038a1.02,1.02,0,0,0-1.031,1.012,1,1,0,0,0,.993,1.031,1.037,1.037,0,0,0,1.05-1.012A1.021,1.021,0,0,0,152.479,44.344Zm-5.7,2.812a1.021,1.021,0,0,0-1.031,1.012,1.037,1.037,0,0,0,1.012,1.05,1.02,1.02,0,0,0,1.031-1.012A1.037,1.037,0,0,0,146.781,47.156Zm2.831.056a1,1,0,0,0-1.031.993,1.021,1.021,0,0,0,.993,1.05,1.037,1.037,0,0,0,1.05-1.012A1.02,1.02,0,0,0,149.611,47.212Zm-2.868,2.85a1.031,1.031,0,0,0-.038,2.062,1.031,1.031,0,1,0,.038-2.062Zm2.831.056a1.037,1.037,0,0,0-1.05,1.012,1.022,1.022,0,1,0,2.043.019A1,1,0,0,0,149.574,50.118Zm2.812.038a1.022,1.022,0,1,0,1.012,1.031A1.02,1.02,0,0,0,152.386,50.155Zm2.831.038a1.022,1.022,0,1,0-.019,2.043,1,1,0,0,0,1.031-.993A1.037,1.037,0,0,0,155.217,50.193Zm22.608.337a1.022,1.022,0,1,0-.019,2.043,1,1,0,0,0,1.031-.993A1.037,1.037,0,0,0,177.826,50.53Zm2.831.038a1.031,1.031,0,1,0,1.012,1.05A1.037,1.037,0,0,0,180.656,50.568Zm-39.611,2.324a1.022,1.022,0,1,0,1.012,1.031A1.021,1.021,0,0,0,141.045,52.892Zm2.831.038a1.02,1.02,0,0,0-1.031,1.012,1,1,0,0,0,.993,1.031,1.021,1.021,0,0,0,1.05-.993A1.037,1.037,0,0,0,143.876,52.93Zm2.831.056a1.021,1.021,0,0,0-1.05.993,1.037,1.037,0,0,0,1.012,1.05,1.021,1.021,0,0,0,1.031-1.012A1,1,0,0,0,146.707,52.986Zm2.812.038a1.022,1.022,0,1,0,1.012,1.031A1.02,1.02,0,0,0,149.519,53.024Zm2.831.038a1.022,1.022,0,1,0,1.012,1.031A1.021,1.021,0,0,0,152.35,53.061Zm2.831.038a1.021,1.021,0,0,0-1.031,1.012,1,1,0,0,0,.993,1.031,1.021,1.021,0,0,0,1.05-.993A1.037,1.037,0,0,0,155.181,53.1Zm19.777.3a1.021,1.021,0,0,0-1.031,1.012,1,1,0,0,0,.993,1.031,1.037,1.037,0,0,0,1.05-1.012A1.02,1.02,0,0,0,174.958,53.4Zm2.831.038a1.037,1.037,0,0,0-1.05,1.012,1.031,1.031,0,0,0,2.062.038A1.037,1.037,0,0,0,177.789,53.437Zm2.831.038a1.031,1.031,0,1,0-.038,2.062,1.031,1.031,0,0,0,.038-2.062Zm-42.442,2.287a1.022,1.022,0,1,0,1.012,1.031A1.021,1.021,0,0,0,138.177,55.762Zm2.831.038a1.037,1.037,0,0,0-1.05,1.012,1.031,1.031,0,0,0,2.062.038A1.037,1.037,0,0,0,141.008,55.8Zm2.831.038A1.031,1.031,0,1,0,143.8,57.9a1.031,1.031,0,0,0,.038-2.062Zm2.812.056a1,1,0,0,0-1.031.993,1.037,1.037,0,0,0,1.012,1.05,1.022,1.022,0,1,0,.019-2.043Zm2.831.038a1.021,1.021,0,0,0-1.031,1.012,1,1,0,0,0,.993,1.031,1.037,1.037,0,0,0,1.05-1.012A1.02,1.02,0,0,0,149.482,55.931Zm2.831.038a1.037,1.037,0,0,0-1.05,1.012,1.031,1.031,0,0,0,2.062.038A1.037,1.037,0,0,0,152.313,55.968Zm2.831.038a1.031,1.031,0,0,0-.038,2.062,1.031,1.031,0,0,0,.038-2.062Zm2.812.056a1,1,0,0,0-1.031.993,1.037,1.037,0,0,0,1.012,1.05,1.022,1.022,0,1,0,.019-2.043Zm2.831.038a1.021,1.021,0,0,0-1.031,1.012,1,1,0,0,0,.993,1.031,1.037,1.037,0,0,0,1.05-1.012A1.021,1.021,0,0,0,160.786,56.1Zm2.831.038a1.037,1.037,0,0,0-1.05,1.012,1.021,1.021,0,0,0,1.012,1.031,1.037,1.037,0,0,0,1.05-1.012A1.02,1.02,0,0,0,163.617,56.138Zm2.831.038a1.031,1.031,0,1,0-.038,2.062,1.031,1.031,0,0,0,.038-2.062Zm2.812.056a1,1,0,0,0-1.031.993,1.037,1.037,0,0,0,1.012,1.05,1.022,1.022,0,1,0,.019-2.043Zm2.831.038a1.021,1.021,0,0,0-1.031,1.012,1,1,0,0,0,.993,1.031A1.037,1.037,0,0,0,173.1,57.3,1.02,1.02,0,0,0,172.091,56.269Zm2.831.038a1.037,1.037,0,0,0-1.05,1.012,1.021,1.021,0,0,0,1.012,1.031,1.037,1.037,0,0,0,1.05-1.012,1.021,1.021,0,0,0-1.012-1.031Zm2.831.038a1.037,1.037,0,0,0-1.05,1.012,1.021,1.021,0,0,0,1.012,1.031,1,1,0,0,0,1.031-.993A1.021,1.021,0,0,0,177.752,56.344Zm-36.781,2.362a1.037,1.037,0,0,0-1.05,1.012,1.021,1.021,0,0,0,1.012,1.031,1,1,0,0,0,1.031-.993A1.021,1.021,0,0,0,140.972,58.706Zm2.812.038a1.02,1.02,0,0,0-1.031,1.012,1.037,1.037,0,0,0,1.012,1.05,1.021,1.021,0,0,0,1.031-1.012A1.037,1.037,0,0,0,143.784,58.744Zm2.831.056a1,1,0,0,0-1.031.993,1.021,1.021,0,0,0,.993,1.05,1.037,1.037,0,0,0,1.05-1.012A1.02,1.02,0,0,0,146.614,58.8Zm2.831.038a1.037,1.037,0,0,0-1.05,1.012,1.021,1.021,0,0,0,1.012,1.031,1.037,1.037,0,0,0,1.05-1.012A1.021,1.021,0,0,0,149.445,58.838Zm2.831.038a1.037,1.037,0,0,0-1.05,1.012,1.021,1.021,0,0,0,1.012,1.031,1,1,0,0,0,1.031-.993A1.021,1.021,0,0,0,152.276,58.875Zm2.812.038a1.021,1.021,0,0,0-1.031,1.012,1.037,1.037,0,0,0,1.012,1.05,1.02,1.02,0,0,0,1.031-1.012A1.037,1.037,0,0,0,155.088,58.913Zm2.831.056a1,1,0,0,0-1.031.993,1.021,1.021,0,0,0,.993,1.05A1.037,1.037,0,0,0,158.931,60,1.021,1.021,0,0,0,157.919,58.969Zm2.831.038a1.037,1.037,0,0,0-1.05,1.012,1.021,1.021,0,0,0,1.012,1.031,1.037,1.037,0,0,0,1.05-1.012A1.021,1.021,0,0,0,160.75,59.007Zm2.831.038a1.037,1.037,0,0,0-1.05,1.012,1.021,1.021,0,0,0,1.012,1.031,1,1,0,0,0,1.031-.993A1.021,1.021,0,0,0,163.581,59.045Zm2.812.038a1.021,1.021,0,0,0-1.031,1.012,1.037,1.037,0,0,0,1.012,1.05,1.02,1.02,0,0,0,1.031-1.012A1.037,1.037,0,0,0,166.393,59.082Zm5.662.094A1.037,1.037,0,0,0,171,60.188a1.022,1.022,0,0,0,2.043.019A1,1,0,0,0,172.054,59.176Zm2.812.038a1.022,1.022,0,0,0-.019,2.043,1,1,0,0,0,1.031-.993A1.037,1.037,0,0,0,174.866,59.214Zm2.831.038a1.021,1.021,0,0,0-1.031,1.012,1.037,1.037,0,0,0,1.012,1.05,1.02,1.02,0,0,0,1.031-1.012A1.037,1.037,0,0,0,177.7,59.251Zm-42.423,2.287a1.037,1.037,0,0,0-1.05,1.012,1.02,1.02,0,0,0,1.012,1.031,1.037,1.037,0,0,0,1.05-1.012A1.021,1.021,0,0,0,135.274,61.539Zm2.831.038a1.037,1.037,0,0,0-1.05,1.012,1.022,1.022,0,0,0,2.043.019A1,1,0,0,0,138.105,61.576Zm2.812.038a1.022,1.022,0,1,0-.019,2.043,1,1,0,0,0,1.031-.993A1.037,1.037,0,0,0,140.917,61.614Zm2.831.038a1.031,1.031,0,0,0-.038,2.062,1.031,1.031,0,0,0,.038-2.062Zm2.831.056a1.037,1.037,0,0,0-1.05,1.012,1.021,1.021,0,0,0,1.012,1.031,1.037,1.037,0,0,0,1.05-1.012A1.021,1.021,0,0,0,146.579,61.708Zm2.812.038a1.022,1.022,0,1,0,1.012,1.031A1.021,1.021,0,0,0,149.391,61.745Zm2.831.038a1.022,1.022,0,0,0-.019,2.043,1,1,0,0,0,1.031-.993,1.037,1.037,0,0,0-1.012-1.05Zm2.831.038a1.031,1.031,0,0,0-.038,2.062,1.031,1.031,0,1,0,.038-2.062Zm2.831.056a1.021,1.021,0,0,0-1.05.993,1.037,1.037,0,0,0,1.012,1.05,1.021,1.021,0,0,0,1.031-1.012,1,1,0,0,0-.993-1.031Zm2.812.038a1.022,1.022,0,1,0,1.012,1.031A1.021,1.021,0,0,0,160.7,61.914Zm2.831.038A1.022,1.022,0,0,0,163.507,64,1,1,0,0,0,164.538,63,1.037,1.037,0,0,0,163.526,61.952Zm2.831.038a1.031,1.031,0,0,0-.038,2.062,1.031,1.031,0,0,0,.038-2.062Zm5.643.094a1.022,1.022,0,1,0,1.012,1.031A1.021,1.021,0,0,0,172,62.083Zm2.831.038a1.022,1.022,0,0,0-.019,2.043,1,1,0,0,0,1.031-.993A1.037,1.037,0,0,0,174.831,62.121ZM138.05,64.483a1.022,1.022,0,1,0,1.012,1.031A1.021,1.021,0,0,0,138.05,64.483Zm2.831.037a1.021,1.021,0,0,0-1.031,1.012,1,1,0,0,0,.993,1.031,1.021,1.021,0,0,0,1.05-.993,1.037,1.037,0,0,0-1.012-1.05Zm2.831.056a1.021,1.021,0,0,0-1.05.993,1.037,1.037,0,0,0,1.012,1.05,1.021,1.021,0,0,0,1.031-1.012,1,1,0,0,0-.993-1.031Zm2.812.037a1.022,1.022,0,1,0,1.012,1.031A1.021,1.021,0,0,0,146.523,64.614Zm2.831.037a1.022,1.022,0,1,0,1.012,1.031A1.02,1.02,0,0,0,149.354,64.651Zm2.831.037a1.021,1.021,0,0,0-1.031,1.012,1,1,0,0,0,.993,1.031,1.021,1.021,0,0,0,1.05-.993A1.037,1.037,0,0,0,152.185,64.689Zm2.625.057a1.03,1.03,0,0,0,.169,2.043,1.021,1.021,0,0,0,1.031-1.012,1,1,0,0,0-.993-1.031A1.132,1.132,0,0,0,154.81,64.745Zm3.018.037a1.022,1.022,0,1,0,1.012,1.031A1.021,1.021,0,0,0,157.828,64.782Zm2.831.037a1.022,1.022,0,1,0,1.012,1.031A1.02,1.02,0,0,0,160.659,64.82Zm2.831.037a1.021,1.021,0,0,0-1.031,1.012,1,1,0,0,0,.993,1.031,1.021,1.021,0,0,0,1.05-.993,1.037,1.037,0,0,0-1.012-1.05Zm-19.834,2.625a1,1,0,0,0-1.031.993,1.037,1.037,0,0,0,1.012,1.05,1.022,1.022,0,1,0,.019-2.043Zm2.831.037a1.021,1.021,0,0,0-1.031,1.012,1,1,0,0,0,.993,1.031,1.037,1.037,0,0,0,1.05-1.012A1.021,1.021,0,0,0,146.487,67.519Zm2.831.037a1.037,1.037,0,0,0-1.05,1.012A1.02,1.02,0,0,0,149.28,69.6a1.037,1.037,0,0,0,1.05-1.012A1.021,1.021,0,0,0,149.317,67.556Zm2.831.037a1.031,1.031,0,0,0-.038,2.062,1.031,1.031,0,0,0,.038-2.062Zm2.812.056a1,1,0,0,0-1.031.993,1.037,1.037,0,0,0,1.012,1.05,1.022,1.022,0,0,0,.019-2.043Zm2.831.037A1.021,1.021,0,0,0,156.76,68.7a1,1,0,0,0,.993,1.031,1.037,1.037,0,0,0,1.05-1.012A1.021,1.021,0,0,0,157.791,67.687Zm2.831.037a1.037,1.037,0,0,0-1.05,1.012,1.021,1.021,0,0,0,1.012,1.031,1.037,1.037,0,0,0,1.05-1.012A1.021,1.021,0,0,0,160.622,67.724Zm-17,2.662a1,1,0,0,0-1.031.993,1.021,1.021,0,0,0,.993,1.05,1.037,1.037,0,0,0,1.05-1.012A1.021,1.021,0,0,0,143.618,70.386Zm2.831.037a1.037,1.037,0,0,0-1.05,1.012,1.021,1.021,0,0,0,1.012,1.031,1.037,1.037,0,0,0,1.05-1.012A1.021,1.021,0,0,0,146.449,70.424Zm2.831.037a1.037,1.037,0,0,0-1.05,1.012,1.02,1.02,0,0,0,1.012,1.031,1,1,0,0,0,1.031-.993A1.021,1.021,0,0,0,149.28,70.461Zm2.812.037a1.02,1.02,0,0,0-1.031,1.012,1.037,1.037,0,0,0,1.012,1.05,1.021,1.021,0,0,0,1.031-1.012A1.037,1.037,0,0,0,152.092,70.5Zm2.831.056a1,1,0,0,0-1.031.993,1.021,1.021,0,0,0,.993,1.05,1.037,1.037,0,0,0,1.05-1.012A1.021,1.021,0,0,0,154.923,70.555Zm2.831.037A1.037,1.037,0,0,0,156.7,71.6a1.021,1.021,0,0,0,1.012,1.031,1.037,1.037,0,0,0,1.05-1.012A1.021,1.021,0,0,0,157.754,70.592Zm-14.172,2.7a1.037,1.037,0,0,0-1.05,1.012,1.021,1.021,0,0,0,1.012,1.031,1.037,1.037,0,0,0,1.05-1.012A1.021,1.021,0,0,0,143.581,73.291Zm2.831.037a1.037,1.037,0,0,0-1.05,1.012,1.022,1.022,0,1,0,2.043.019A1,1,0,0,0,146.412,73.328Zm2.812.037a1.022,1.022,0,1,0-.019,2.043,1,1,0,0,0,1.031-.993,1.037,1.037,0,0,0-1.012-1.05Zm2.831.037a1.031,1.031,0,0,0-.038,2.062,1.031,1.031,0,1,0,.038-2.062Zm2.831.056a1.021,1.021,0,0,0-1.05.993,1.031,1.031,0,0,0,2.062.038A1.021,1.021,0,0,0,154.886,73.459Zm-8.53,2.774a1.022,1.022,0,1,0,1.012,1.031A1.021,1.021,0,0,0,146.356,76.234Zm2.831.037a1.021,1.021,0,0,0-1.031,1.012,1,1,0,0,0,.993,1.031,1.021,1.021,0,0,0,1.05-.993,1.037,1.037,0,0,0-1.012-1.05Zm2.625.056a1.03,1.03,0,0,0,.169,2.043,1.021,1.021,0,0,0,1.031-1.012,1,1,0,0,0-.993-1.031A1.134,1.134,0,0,0,151.811,76.327Zm-5.493,2.812a1.021,1.021,0,0,0-1.031,1.012,1,1,0,0,0,.993,1.031,1.037,1.037,0,0,0,1.05-1.012A1.021,1.021,0,0,0,146.319,79.139Zm2.831.037a1.031,1.031,0,0,0-.038,2.062,1.031,1.031,0,0,0,.038-2.062Zm2.812.057a1,1,0,0,0-1.031.993,1.037,1.037,0,0,0,1.012,1.05,1.022,1.022,0,0,0,.019-2.043Zm-2.868,2.85a1.021,1.021,0,0,0-1.031,1.012,1.037,1.037,0,0,0,1.012,1.05,1.021,1.021,0,0,0,1.031-1.012A1.037,1.037,0,0,0,149.094,82.083Zm2.831.056a1,1,0,0,0-1.031.993,1.021,1.021,0,0,0,.993,1.05,1.037,1.037,0,0,0,1.05-1.012,1.021,1.021,0,0,0-1.012-1.031Zm-2.868,2.85a1.031,1.031,0,0,0-.038,2.062,1.031,1.031,0,0,0,.038-2.062Zm2.831.056a1.021,1.021,0,0,0-1.05.993,1.031,1.031,0,0,0,2.062.038,1.021,1.021,0,0,0-1.012-1.031Zm-3.074,2.868a1.03,1.03,0,0,0,.169,2.043,1.021,1.021,0,0,0,1.031-1.012,1,1,0,0,0-.993-1.031A1.135,1.135,0,0,0,148.813,87.913Z" transform="translate(-134.224 -38.401)" fill-rule="evenodd"></path></g><g id="Group_44223" data-name="Group 44223" transform="translate(-1050 -5380.029)"><g id="Group_17405" data-name="Group 17405" transform="translate(1144.75 6519.383)"><g id="Group_973" data-name="Group 973"><g id="Rectangle_821" data-name="Rectangle 821" fill="none" stroke="#000" stroke-width="1"><rect width="71.04" height="71.04" rx="11" stroke="none"></rect><rect x="0.5" y="0.5" width="70.04" height="70.04" rx="10.5" fill="none"></rect></g></g></g></g></g></svg>