<svg xmlns="http://www.w3.org/2000/svg" width="71.04" height="71.04" viewBox="0 0 71.04 71.04"><g id="Group_44235" data-name="Group 44235" transform="translate(-94.75 -1330.777)"><g id="noun-service-1113280" transform="translate(108.236 1343.951)"><path id="Path_16380" data-name="Path 16380" d="M394.215,120.816l-.945.36a5.13,5.13,0,0,0-1.3-1.3l.45-1.08a.2.2,0,0,0,0-.225.35.35,0,0,0-.18-.18l-1.44-.63a.273.273,0,0,0-.4.18l-.495,1.08a5.159,5.159,0,0,0-1.664,0l-.4-1.034a.315.315,0,0,0-.4-.18l-1.484.585a.315.315,0,0,0-.18.4l.4.989a5.206,5.206,0,0,0-1.259,1.169l-1.214-.495a.273.273,0,0,0-.4.18l-.63,1.484a.2.2,0,0,0,0,.225c.045.045.09.135.18.18l1.169.495a5.334,5.334,0,0,0-.045,1.889l-.945.36a.315.315,0,0,0-.18.4l.585,1.484a.315.315,0,0,0,.4.18l.945-.36a4.314,4.314,0,0,0,1.169,1.214l-.45,1.034a.2.2,0,0,0,0,.225.351.351,0,0,0,.18.18l1.484.63a.2.2,0,0,0,.225,0,.351.351,0,0,0,.18-.18l.45-1.034a5.337,5.337,0,0,0,1.889.045l.36.855a.315.315,0,0,0,.4.18l1.484-.585a.315.315,0,0,0,.18-.4l-.36-.9a5.966,5.966,0,0,0,1.3-1.3l.855.36a.2.2,0,0,0,.225,0,.35.35,0,0,0,.18-.18l.63-1.484a.2.2,0,0,0,0-.225.35.35,0,0,0-.18-.18l-.9-.4a5.438,5.438,0,0,0,0-1.709l.945-.36a.315.315,0,0,0,.18-.4l-.585-1.484c-.045,0-.269-.09-.4-.045Zm-4.048,6.252a3.178,3.178,0,0,1-2.384-5.892,3.178,3.178,0,1,1,2.384,5.892Z" transform="translate(-357.919 -112.676)"></path><path id="Path_16381" data-name="Path 16381" d="M115.6,293.553l-8.86,2.519v.045a3.669,3.669,0,0,1-.36,2.654,3.472,3.472,0,0,1-2.249,1.709,3.756,3.756,0,0,1-2.788-.315l-5.082-2.878.495-.855,5.082,2.879a2.647,2.647,0,0,0,3.6-1.034,2.774,2.774,0,0,0,.315-1.034,2.256,2.256,0,0,0-1.034-2.249L92.4,288.111a3.956,3.956,0,0,0-3.058-.36h-.045c-.315.045-13.628,3.868-14.212,4.047h-.045l2.744,9.535,8.905-2.564c.9.54,7.691,4.767,8.545,5.217a5.171,5.171,0,0,0,3.778.27c.045,0,18.17-5.172,18.17-5.172a3.036,3.036,0,0,0,1.8-3.733,2.753,2.753,0,0,0-3.373-1.8Z" transform="translate(-75.035 -268.907)"></path><path id="Path_16382" data-name="Path 16382" d="M361.4,90.53a9.515,9.515,0,0,0-.945-12.144A9.248,9.248,0,0,0,353.8,75.6a9.4,9.4,0,0,0,0,18.8,10.14,10.14,0,0,0,2.609-.36l-.18-.9a9.069,9.069,0,0,1-2.428.36,8.431,8.431,0,1,1,6.791-3.463Z" transform="translate(-322.766 -73.934)"></path><path id="Path_16383" data-name="Path 16383" d="M340.084,58.166a11.191,11.191,0,0,0-7.961-3.283,11.079,11.079,0,0,0-3.013.4l.18.855a10.34,10.34,0,1,1,2.833,20.284A10.361,10.361,0,0,1,323.668,60.1l-.765-.45a10.922,10.922,0,0,0-2.024,6.431,11.221,11.221,0,0,0,22.443,0,10.863,10.863,0,0,0-3.238-7.916Z" transform="translate(-301.135 -54.883)"></path></g><g id="Group_44225" data-name="Group 44225" transform="translate(-1050 -5188.605)"><g id="Group_17405" data-name="Group 17405" transform="translate(1144.75 6519.383)"><g id="Group_973" data-name="Group 973"><g id="Rectangle_821" data-name="Rectangle 821" fill="none" stroke="#000" stroke-width="1"><rect width="71.04" height="71.04" rx="11" stroke="none"></rect><rect x="0.5" y="0.5" width="70.04" height="70.04" rx="10.5" fill="none"></rect></g></g></g></g></g></svg>