<svg xmlns="http://www.w3.org/2000/svg" width="71" height="71" viewBox="0 0 71 71"><g id="Group_44230" data-name="Group 44230" transform="translate(-992.25 -788.807)"><g id="Rectangle_821" data-name="Rectangle 821" transform="translate(992.25 788.807)" fill="none" stroke="#000" stroke-width="1"><rect width="71" height="71" rx="11" stroke="none"></rect><rect x="0.5" y="0.5" width="70" height="70" rx="10.5" fill="none"></rect></g><g id="noun-empowerment-5115578" transform="translate(894.986 727.113)"><path id="Path_23199" data-name="Path 23199" d="M338.177,198.32a6.543,6.543,0,0,1-2.174,4,2.757,2.757,0,0,0,5.315-.14l1.862-7.509a3.126,3.126,0,0,0-2.578-3.844,3.02,3.02,0,0,0-2.273.576,3.137,3.137,0,0,0-1.219,2.141v.013l-.424,2.8.371.126a1.7,1.7,0,0,1,1.12,1.842Z" transform="translate(-204.896 -105.749)"></path><path id="Path_23200" data-name="Path 23200" d="M280.746,186.236A3.565,3.565,0,0,0,277.7,182.2a3.578,3.578,0,0,0-2.591.65,3.542,3.542,0,0,0-1.412,2.267l-.139.8,6.892,2.406.3-2.088Z" transform="translate(-149.844 -98.145)"></path><path id="Path_23201" data-name="Path 23201" d="M236.4,234.672a3.278,3.278,0,0,1-1.372-.3,3.239,3.239,0,0,1-1.584-1.591,3.386,3.386,0,0,1-2.531,1.146,3.59,3.59,0,0,1-.875-.113,3.407,3.407,0,0,1-2.233-1.922,3.833,3.833,0,0,1-.63.55,4,4,0,0,1-2.306.729,2.58,2.58,0,0,1-.391-.02,3.988,3.988,0,0,1-3.287-2.419,6.552,6.552,0,0,1-3,.882c-.451.02-.875.026-1.279.013a5.86,5.86,0,0,1-2.465,3.161.6.6,0,0,1-.312.086.637.637,0,0,1-.537-.3.624.624,0,0,1,.219-.848,4.529,4.529,0,0,0,1.8-2.181,5.487,5.487,0,0,1-2.976-1.054.62.62,0,1,1,.809-.941,5.077,5.077,0,0,0,3.015.822h.046c.477.02,1.014.026,1.63,0a5.349,5.349,0,0,0,5.044-4.573.451.451,0,0,0-.3-.5l-.855-.3-7.708-2.7a2.513,2.513,0,0,0-3.128,1.378l-3.864,9.059a4.673,4.673,0,0,0,.65,4.752l7.867,9.828a4.074,4.074,0,0,1,.888,2.532v3.917h18.258V251.1a.641.641,0,0,1,.159-.417l1.478-1.624a9.765,9.765,0,0,0,2.36-4.686l.848-4.307a52.323,52.323,0,0,0,.987-10.113l-1.538,2.962a3.24,3.24,0,0,1-2.883,1.756Zm-8.35,9.55a.616.616,0,0,1-.6.49.448.448,0,0,1-.133-.013.619.619,0,0,1-.471-.735,6.531,6.531,0,0,0-.8-4.334,7.819,7.819,0,0,0-2.558-2.949.619.619,0,0,1,.63-1.067,8.983,8.983,0,0,1,3.022,3.433,7.729,7.729,0,0,1,.908,5.169Z" transform="translate(-91.116 -133.407)"></path><path id="Path_23202" data-name="Path 23202" d="M392.74,222.281a2.159,2.159,0,0,0,2.585-1.372l2.505-7.2a2.462,2.462,0,0,0-1.749-3.2,2.5,2.5,0,0,0-1.849.285,2.416,2.416,0,0,0-1.113,1.491l-1.909,7.376a2.155,2.155,0,0,0,1.531,2.618Z" transform="translate(-253.507 -123.077)"></path><path id="Path_23203" data-name="Path 23203" d="M443.9,240.319a2.415,2.415,0,0,0-3.453,1.352l-1.624,4.858a2.015,2.015,0,0,0,3.7,1.571l2.366-4.546a2.42,2.42,0,0,0-.987-3.234Z" transform="translate(-295.459 -149.153)"></path><path id="Path_23204" data-name="Path 23204" d="M345.409,76.818a.615.615,0,0,0,.616-.616V71.463a.616.616,0,0,0-1.232,0V76.2A.615.615,0,0,0,345.409,76.818Z" transform="translate(-212.646 0)"></path><path id="Path_23205" data-name="Path 23205" d="M108.959,360.47H104.22a.616.616,0,1,0,0,1.232h4.738a.616.616,0,1,0,0-1.232Z" transform="translate(0 -255.348)"></path><path id="Path_23206" data-name="Path 23206" d="M213.029,121.736a.607.607,0,0,0,.5.252.612.612,0,0,0,.49-.981l-2.823-3.8a.616.616,0,0,0-.987.736l2.823,3.8Z" transform="translate(-93.877 -40.65)"></path><path id="Path_23207" data-name="Path 23207" d="M128.882,233.688l-4.48-1.551a.62.62,0,0,0-.4,1.173l4.48,1.551a.538.538,0,0,0,.205.033.611.611,0,0,0,.583-.417A.619.619,0,0,0,128.882,233.688Z" transform="translate(-17.611 -142.172)"></path><path id="Path_23208" data-name="Path 23208" d="M551.3,360.47H546.56a.616.616,0,0,0,0,1.232H551.3a.616.616,0,0,0,0-1.232Z" transform="translate(-389.991 -255.348)"></path><path id="Path_23209" data-name="Path 23209" d="M455.887,121.768a.63.63,0,0,0,.364.119.605.605,0,0,0,.5-.252l2.823-3.8a.616.616,0,0,0-.987-.736l-2.823,3.8a.615.615,0,0,0,.126.862Z" transform="translate(-310.373 -40.556)"></path><path id="Path_23210" data-name="Path 23210" d="M533.719,232.531a.619.619,0,0,0-.789-.384l-4.48,1.551a.624.624,0,0,0-.384.789.61.61,0,0,0,.583.417.777.777,0,0,0,.205-.033l4.48-1.551A.624.624,0,0,0,533.719,232.531Z" transform="translate(-374.201 -142.18)"></path></g></g></svg>