<svg xmlns="http://www.w3.org/2000/svg" width="71" height="71" viewBox="0 0 71 71"><g id="Group_44226" data-name="Group 44226" transform="translate(-992.25 -1279.707)"><g id="Group_17405" data-name="Group 17405" transform="translate(-99.75 -3008.293)"><g id="Group_973" data-name="Group 973" transform="translate(1092 4288)"><g id="Rectangle_821" data-name="Rectangle 821" fill="none" stroke="#000" stroke-width="1"><rect width="71" height="71" rx="11" stroke="none"></rect><rect x="0.5" y="0.5" width="70" height="70" rx="10.5" fill="none"></rect></g></g></g><path id="noun-solve-4398472" d="M146,5.6a.591.591,0,0,0-.582.6v4.446a.591.591,0,1,0,1.181,0V6.2a.59.59,0,0,0-.6-.6Zm-5.8.766h0a.591.591,0,0,0-.582.752l1.151,4.295h0a.591.591,0,1,0,1.14-.306l-1.151-4.294h0a.591.591,0,0,0-.559-.446ZM134.75,8.612a.591.591,0,0,0-.485.893l2.224,3.85a.591.591,0,1,0,1.023-.59l-2.224-3.85h0a.592.592,0,0,0-.538-.3Zm19.761,1.735a17.01,17.01,0,0,0-3.751.449l1.389,5.182a2.8,2.8,0,1,1,1.358,5.065l1.4,5.24,5.068-1.358h0a.591.591,0,0,1,.769.822l-.011.019a1.614,1.614,0,1,0,2.205-.59h0l-.015-.008-.015-.009a.591.591,0,0,1,.245-1.084l4.84-1.3a15.717,15.717,0,0,0-.753-3.63,4.366,4.366,0,0,1-5.121-6.6,13.55,13.55,0,0,0-7.614-2.2Zm11.151,1.528a3.283,3.283,0,0,0-.8.111,3.178,3.178,0,1,0,1.266-.081,3.13,3.13,0,0,0-.469-.029Zm-35.545.307a.591.591,0,0,0-.411,1.015l3.144,3.143h0a.591.591,0,1,0,.836-.836l-3.145-3.143a.589.589,0,0,0-.424-.18Zm36.789.915a.59.59,0,0,1,.494.9l-1.474,2.5h0a.591.591,0,0,1-.8.214l-1.17-.661h0a.591.591,0,1,1,.581-1.029l.666.376,1.179-2a.59.59,0,0,1,.524-.3Zm-21.489,1.29c-9.444.32-14.959,7.962-13.552,16.047h4.029a2.8,2.8,0,1,1,5.246,0h4.286c-.026-2.316.021-5.566.029-6.493h0c0-.008,0-.015,0-.023v-.009a.59.59,0,0,1,1.047-.346,1.612,1.612,0,1,0-.04-2.318l-.022.021-.011.009-.037.029q-.024.017-.049.032h0a.591.591,0,0,1-.889-.514c0-1.31-.013-4.732-.038-6.436Zm-18.85,2.45h0a.591.591,0,0,0-.31,1.106l3.851,2.223h0a.591.591,0,0,0,.59-1.024l-3.852-2.222a.588.588,0,0,0-.28-.083Zm-2.283,5.419h0a.591.591,0,0,0-.131,1.164l4.3,1.151a.591.591,0,0,0,.305-1.141l-4.3-1.151a.585.585,0,0,0-.175-.023Zm14.232,5.6a1.613,1.613,0,0,0-1.141,2.754l.017.019c.011.013.023.026.033.04l0,.007c.009.012.017.025.026.038l.009.013.019.036.009.017c.006.013.012.026.017.04l.007.015c.006.015.01.03.015.045a.056.056,0,0,0,0,.009c0,.014.006.029.009.043s0,.011,0,.017,0,.027,0,.04V31q0,.015,0,.031c0,.011,0,.022,0,.032v.011c0,.017,0,.033-.007.049a.558.558,0,0,1-.013.057h0a.528.528,0,0,1-.017.055l0,.008a.59.59,0,0,1-.05.1.558.558,0,0,1-.034.048.592.592,0,0,1-.468.223h-4.9c.011.043.019.086.03.127a21.418,21.418,0,0,0,5.732,9.449,31.7,31.7,0,0,1,2.894,3.344,6.835,6.835,0,0,1,1.205,3.175h3.506c0-2.332-.006-4.676-.006-7.012a2.8,2.8,0,1,1,0-5.242l.006-3.841h-5.363a.564.564,0,0,1-.063-.006h0a.478.478,0,0,1-.052-.009h-.006l-.043-.013-.015,0-.041-.017-.013-.006-.046-.025,0,0-.041-.027-.008-.009c-.012-.009-.023-.018-.034-.028l-.011-.009-.032-.032-.011-.009-.024-.03-.015-.017-.017-.027-.015-.023-.015-.027-.013-.027-.011-.029c0-.008-.006-.016-.008-.024l-.011-.034-.006-.024c0-.009,0-.018,0-.028s0-.021,0-.031,0-.014,0-.021,0-.026,0-.039a.151.151,0,0,1,0-.019q0-.02,0-.039c0-.007,0-.014,0-.021s0-.026,0-.039l0-.013a.414.414,0,0,1,.011-.045l0-.006a.5.5,0,0,1,.017-.049l.006-.013c.006-.014.012-.028.019-.041l0-.008a.6.6,0,0,1,.1-.136,1.613,1.613,0,0,0-1.142-2.754Zm-10.523.222h-4.453a.591.591,0,1,0,0,1.181h4.447a.591.591,0,1,0,.006-1.181ZM146.6,31.616l-.009,4.9h0q0,.015,0,.031v0a.591.591,0,0,1-1.074.324,1.613,1.613,0,1,0,0,2.4h0a.591.591,0,0,1,1.076.336v.025c0,2.68.009,5.384.011,8.07h3.488a6.732,6.732,0,0,1,1.2-3.151,31.49,31.49,0,0,1,2.882-3.3,21.316,21.316,0,0,0,5.748-9.514c.011-.038.017-.088.027-.127h-3.819a2.8,2.8,0,1,1-5.245,0Zm-18,1.121h0a.585.585,0,0,0-.157.022l-4.3,1.15a.591.591,0,1,0,.306,1.142l4.3-1.15h0a.591.591,0,0,0-.148-1.163Zm1.823,4.344h0a.59.59,0,0,0-.322.083l-3.851,2.223a.591.591,0,1,0,.59,1.023l3.852-2.223a.591.591,0,0,0-.269-1.105Zm2.826,3.73h0a.59.59,0,0,0-.407.179l-3.144,3.143h0a.591.591,0,1,0,.834.836l3.145-3.143a.59.59,0,0,0-.429-1.014Zm8.024,8.081a.984.984,0,1,0,0,1.967h9.449a.984.984,0,1,0,0-1.967Zm.186,3.148.055,4.638a4.481,4.481,0,0,0,8.962,0l.059-4.638Zm2.315,3.974h4.447a.591.591,0,1,1,0,1.181h-4.446a.591.591,0,1,1,0-1.181Z" transform="translate(881.3 1281.842)"></path></g></svg>