<svg xmlns="http://www.w3.org/2000/svg" width="71" height="71" viewBox="0 0 71 71"><g id="Group_44228" data-name="Group 44228" transform="translate(-992.25 -1040.875)"><g id="Group_17406" data-name="Group 17406" transform="translate(-99.75 -2899.125)"><g id="Group_972" data-name="Group 972" transform="translate(1092 3940)"><g id="Rectangle_821" data-name="Rectangle 821" fill="none" stroke="#000" stroke-width="1"><rect width="71" height="71" rx="11" stroke="none"></rect><rect x="0.5" y="0.5" width="70" height="70" rx="10.5" fill="none"></rect></g></g></g><g id="noun-impact-2051253" transform="translate(916.729 1036.594)"><path id="Path_69685" data-name="Path 69685" d="M209.9,17.5a23.354,23.354,0,0,0-13.79,4.464l.921,1.27a21.962,21.962,0,0,1,33.188,26.116l1.451.6A23.535,23.535,0,0,0,209.9,17.5Z" transform="translate(-98.878)"></path><path id="Path_69686" data-name="Path 69686" d="M111.021,241.08a23.547,23.547,0,0,0,11.356-2.918l-.758-1.373a21.969,21.969,0,0,1-31.795-24.968l-1.514-.409h0a23.54,23.54,0,0,0,22.711,29.667Z" transform="translate(0 -176.537)"></path><path id="Path_69687" data-name="Path 69687" d="M190.679,105a15.684,15.684,0,0,0-6.6,29.909l.661-1.422a14.113,14.113,0,1,1,11.884,0l.661,1.422a15.684,15.684,0,0,0-6.6-29.909Z" transform="translate(-79.657 -79.66)"></path><path id="Path_69688" data-name="Path 69688" d="M101.739,40.285v-4.7h1.568V31.13a1.547,1.547,0,0,0-1.568-1.525h-.795a1.876,1.876,0,0,0,.717-2.069,1.911,1.911,0,0,0-1.355-1.3,1.953,1.953,0,0,0-2.488,1.84,1.883,1.883,0,0,0,.795,1.526h-.795A1.547,1.547,0,0,0,96.25,31.13v4.45h1.568v4.7Z" transform="translate(-7.967 -7.888)"></path><path id="Path_69689" data-name="Path 69689" d="M512.908,383.851a1.91,1.91,0,0,0-1.355-1.3,1.953,1.953,0,0,0-2.488,1.84,1.882,1.882,0,0,0,.795,1.526h-.795a1.547,1.547,0,0,0-1.568,1.526v4.45h1.568v4.7h3.92v-4.7h1.568v-4.451a1.547,1.547,0,0,0-1.568-1.525h-.795a1.875,1.875,0,0,0,.717-2.069Z" transform="translate(-382.363 -332.275)"></path><path id="Path_69694" data-name="Path 69694" d="M285.365,165.039v-7.451a3.525,3.525,0,0,0-3.525-3.525h-1.476a3.136,3.136,0,1,0-4.109,0h-1.477a3.525,3.525,0,0,0-3.525,3.525v7.451H273.6V158.7a2.677,2.677,0,0,1,.784-1.893v19.21h3.528V165.039h.784v10.977h3.528v-19.21a4.9,4.9,0,0,1,.784,2.677v5.556Z" transform="translate(-167.287 -119.313)"></path></g></g></svg>