<svg xmlns="http://www.w3.org/2000/svg" width="134.05" height="40" viewBox="0 0 134.05 40">
  <g id="Group_5" data-name="Group 5" transform="translate(-472 -321)">
    <g id="Group_1" data-name="Group 1" transform="translate(472 321)">
      <path id="Path_1" data-name="Path 1" d="M278.88,234.415a8.032,8.032,0,0,1-3.831-.915,6.765,6.765,0,0,1-2.73-2.667,8.488,8.488,0,0,1-1.008-4.3,8.021,8.021,0,0,1,1.1-4.3,7.342,7.342,0,0,1,2.947-2.729,8.739,8.739,0,0,1,4.048-.946,7.061,7.061,0,0,1,3.04.589,4.653,4.653,0,0,1,1.892,1.536,3.425,3.425,0,0,1,.651,1.969,1.734,1.734,0,0,1-.527,1.349,1.946,1.946,0,0,1-1.365.481,1.828,1.828,0,0,1-1.458-.651,2.942,2.942,0,0,1-.651-1.706,6.814,6.814,0,0,1,.031-1.163,3.841,3.841,0,0,0,0-.977,1.094,1.094,0,0,0-.388-.7,1.335,1.335,0,0,0-.729-.171,3.282,3.282,0,0,0-2.931,1.644,10.123,10.123,0,0,0-1.039,5.242A8.3,8.3,0,0,0,277.1,230.8a4.076,4.076,0,0,0,3.582,1.66,4.626,4.626,0,0,0,2.357-.527,6.413,6.413,0,0,0,1.737-1.582l.31.248a5.939,5.939,0,0,1-2.389,2.823A7.135,7.135,0,0,1,278.88,234.415Z" transform="translate(-255.365 -212.207)" fill="#fff"/>
      <path id="Path_2" data-name="Path 2" d="M320.434,234.415a4.557,4.557,0,0,1-3.024-1.023,3.622,3.622,0,0,1-1.226-2.947,3.484,3.484,0,0,1,1.489-2.683,10.627,10.627,0,0,1,4.684-1.846q.5-.093,1.117-.2t1.3-.233v-2.45a6.162,6.162,0,0,0-.512-2.962,1.731,1.731,0,0,0-1.6-.853,1.508,1.508,0,0,0-1.178.481,2.951,2.951,0,0,0-.558,1.659l-.062.341a2.976,2.976,0,0,1-.651,1.954,1.931,1.931,0,0,1-1.458.62,1.868,1.868,0,0,1-1.334-.5,1.744,1.744,0,0,1-.527-1.334,2.882,2.882,0,0,1,.884-2.14,5.526,5.526,0,0,1,2.342-1.3,11.04,11.04,0,0,1,3.164-.434,6.173,6.173,0,0,1,4.265,1.349q1.5,1.349,1.5,4.389v6.855q0,1.4,1.3,1.4h.683l.279.248a4.579,4.579,0,0,1-1.287,1.147,3.975,3.975,0,0,1-1.969.4,3.346,3.346,0,0,1-2.156-.636,2.97,2.97,0,0,1-1.039-1.69,12.914,12.914,0,0,1-1.908,1.69A4.25,4.25,0,0,1,320.434,234.415Zm1.892-1.892a2.4,2.4,0,0,0,1.163-.294,8.3,8.3,0,0,0,1.287-.915V226.1l-.62.124q-.31.062-.713.124a4.751,4.751,0,0,0-2.28,1.256,3.271,3.271,0,0,0-.853,2.373,2.717,2.717,0,0,0,.59,1.908A1.874,1.874,0,0,0,322.326,232.523Z" transform="translate(-286.016 -212.207)" fill="#fff"/>
      <path id="Path_3" data-name="Path 3" d="M365.055,226.059a4.448,4.448,0,0,1-3.086-.992,4.064,4.064,0,0,1-1.1-3.164V211.295h-2.141v-.31l.744-.124a5.9,5.9,0,0,0,1.66-.62,6.744,6.744,0,0,0,1.381-1.086l2.543-2.823h.31l-.093,4.342h3.474v.62h-3.505v11.166a2.456,2.456,0,0,0,.48,1.644,1.546,1.546,0,0,0,1.226.558,2.045,2.045,0,0,0,1.148-.326,5.134,5.134,0,0,0,.992-.884l.31.31a4.577,4.577,0,0,1-1.706,1.675A5.237,5.237,0,0,1,365.055,226.059Z" transform="translate(-315.075 -203.851)" fill="#fff"/>
      <path id="Path_4" data-name="Path 4" d="M391.85,234.415a4.557,4.557,0,0,1-3.024-1.023,3.622,3.622,0,0,1-1.226-2.947,3.484,3.484,0,0,1,1.489-2.683,10.626,10.626,0,0,1,4.684-1.846q.5-.093,1.117-.2t1.3-.233v-2.45a6.164,6.164,0,0,0-.511-2.962,1.731,1.731,0,0,0-1.6-.853,1.508,1.508,0,0,0-1.178.481,2.951,2.951,0,0,0-.558,1.659l-.062.341a2.979,2.979,0,0,1-.651,1.954,1.931,1.931,0,0,1-1.458.62,1.868,1.868,0,0,1-1.334-.5,1.744,1.744,0,0,1-.527-1.334,2.882,2.882,0,0,1,.884-2.14,5.527,5.527,0,0,1,2.342-1.3,11.04,11.04,0,0,1,3.164-.434,6.173,6.173,0,0,1,4.265,1.349q1.5,1.349,1.5,4.389v6.855q0,1.4,1.3,1.4h.683l.279.248a4.579,4.579,0,0,1-1.287,1.147,3.975,3.975,0,0,1-1.969.4,3.347,3.347,0,0,1-2.156-.636,2.97,2.97,0,0,1-1.039-1.69,12.91,12.91,0,0,1-1.908,1.69A4.249,4.249,0,0,1,391.85,234.415Zm1.892-1.892a2.4,2.4,0,0,0,1.163-.294,8.29,8.29,0,0,0,1.287-.915V226.1l-.62.124q-.311.062-.713.124a4.751,4.751,0,0,0-2.28,1.256,3.271,3.271,0,0,0-.853,2.373,2.717,2.717,0,0,0,.59,1.908A1.874,1.874,0,0,0,393.742,232.523Z" transform="translate(-334.797 -212.207)" fill="#fff"/>
      <path id="Path_5" data-name="Path 5" d="M457.986,242.4a2.938,2.938,0,0,1-1.969-.62,1.986,1.986,0,0,1-.729-1.582,1.739,1.739,0,0,1,.62-1.4,2.1,2.1,0,0,1,1.4-.527,2.435,2.435,0,0,1,1.3.326,3.006,3.006,0,0,1,.93.946l.217.248q.682.931,1.365-.031.28-.465.636-1.225t.822-2.032l-6.018-14.392a4.255,4.255,0,0,0-.465-.946,1.89,1.89,0,0,0-.807-.6l-.558-.217v-.31h7.723v.279l-.621.248q-.683.217-.7.7a3.414,3.414,0,0,0,.233,1.194l3.226,8.375,3.071-8.468a2.7,2.7,0,0,0,.186-1.194q-.063-.481-.776-.667l-.651-.155v-.31h4.311v.31l-.682.217a1.791,1.791,0,0,0-.993.62,4.7,4.7,0,0,0-.527,1.117l-4.994,13.617a19.937,19.937,0,0,1-2.419,4.87A3.746,3.746,0,0,1,457.986,242.4Z" transform="translate(-380.651 -213.209)" fill="#fff"/>
      <path id="Path_6" data-name="Path 6" d="M510.1,234.415a9.662,9.662,0,0,1-2.729-.357,12.662,12.662,0,0,1-2.233-.884l.031-3.691h.31l1.055,1.861a5.585,5.585,0,0,0,1.5,1.846,3.44,3.44,0,0,0,2.094.6,3.986,3.986,0,0,0,2.4-.667,2.1,2.1,0,0,0,.915-1.784,2.268,2.268,0,0,0-.651-1.675,5.928,5.928,0,0,0-2.419-1.179l-1.3-.4a6.4,6.4,0,0,1-2.978-1.737,4.1,4.1,0,0,1-1.086-2.884,4.469,4.469,0,0,1,1.613-3.474,6.758,6.758,0,0,1,4.622-1.427,9.513,9.513,0,0,1,2.28.264,8.965,8.965,0,0,1,2.063.791l-.186,3.35H515.1l-1.085-1.923a4.637,4.637,0,0,0-1.163-1.442,2.917,2.917,0,0,0-1.722-.419,3.648,3.648,0,0,0-1.985.589,1.873,1.873,0,0,0-.93,1.675,2.017,2.017,0,0,0,.791,1.675,8.05,8.05,0,0,0,2.342,1.148l1.4.4a6.388,6.388,0,0,1,3.195,1.877,4.433,4.433,0,0,1,.962,2.869,4.342,4.342,0,0,1-1.783,3.629A8.085,8.085,0,0,1,510.1,234.415Z" transform="translate(-415.001 -212.207)" fill="#fff"/>
      <path id="Path_7" data-name="Path 7" d="M547.564,226.059a4.447,4.447,0,0,1-3.086-.992,4.064,4.064,0,0,1-1.1-3.164V211.295h-2.141v-.31l.745-.124a5.9,5.9,0,0,0,1.659-.62,6.732,6.732,0,0,0,1.381-1.086l2.543-2.823h.31l-.093,4.342h3.474v.62h-3.5v11.166a2.456,2.456,0,0,0,.48,1.644,1.546,1.546,0,0,0,1.226.558,2.046,2.046,0,0,0,1.148-.326,5.131,5.131,0,0,0,.992-.884l.31.31a4.577,4.577,0,0,1-1.706,1.675A5.237,5.237,0,0,1,547.564,226.059Z" transform="translate(-439.741 -203.851)" fill="#fff"/>
      <path id="Path_8" data-name="Path 8" d="M221.026,279.246v-.288l.374-.086a1.686,1.686,0,0,0,.863-.5,1.363,1.363,0,0,0,.317-.936q0-1.064.014-2.115t.015-2.115v-7.224H221v-.317l.634-.115a1.125,1.125,0,0,0,.835-.4,2.288,2.288,0,0,0,.374-.95,6.445,6.445,0,0,1,.849-1.971,10.068,10.068,0,0,1,1.28-1.569,6.367,6.367,0,0,1,2.317-1.453,7.42,7.42,0,0,1,2.4-.417,4.635,4.635,0,0,1,2.1.475,1.8,1.8,0,0,1,.49,2.792,1.786,1.786,0,0,1-1.3.446,2.277,2.277,0,0,1-1.266-.374A3.806,3.806,0,0,1,228.6,260.8l-.4-.489a.806.806,0,0,0-.633-.389q-.317.015-.461.475a19.551,19.551,0,0,0-.3,2.36q-.1,1.353-.1,2.648h3.224v.576H226.7v11.4a1.37,1.37,0,0,0,1.151,1.41l.72.173v.288Z" transform="translate(-220.997 -239.677)" fill="#fff"/>
      <path id="Path_9" data-name="Path 9" d="M258.495,293.014a7.621,7.621,0,0,1-3.8-.907,6.194,6.194,0,0,1-2.49-2.576,8.292,8.292,0,0,1-.878-3.914,7.711,7.711,0,0,1,.936-3.886,6.5,6.5,0,0,1,2.561-2.533,8.023,8.023,0,0,1,7.325-.014A6.432,6.432,0,0,1,264.7,281.7a7.777,7.777,0,0,1,.935,3.914,8.27,8.27,0,0,1-.878,3.928,6.241,6.241,0,0,1-2.475,2.562A7.54,7.54,0,0,1,258.495,293.014Zm0-.576a2.239,2.239,0,0,0,1.612-.576,3.768,3.768,0,0,0,.878-2.044,31.756,31.756,0,0,0,0-8.318,3.769,3.769,0,0,0-.878-2.044,2.24,2.24,0,0,0-1.612-.576,2.292,2.292,0,0,0-1.627.576,3.691,3.691,0,0,0-.892,2.044,31.752,31.752,0,0,0,0,8.318,3.691,3.691,0,0,0,.892,2.044A2.291,2.291,0,0,0,258.495,292.439Z" transform="translate(-241.715 -253.014)" fill="#fff"/>
      <path id="Path_10" data-name="Path 10" d="M305.241,293.386a4.855,4.855,0,0,1-2.058-.432,3.171,3.171,0,0,1-1.468-1.4,5.06,5.06,0,0,1-.5-2.547l.086-7.4a1.537,1.537,0,0,0-.23-.95,1.259,1.259,0,0,0-.719-.4l-.345-.115v-.288l5.152-1.008.288.288-.144,4.087v6.937a1.639,1.639,0,0,0,.532,1.353,2.059,2.059,0,0,0,1.339.431,4.182,4.182,0,0,0,1.439-.23,5.14,5.14,0,0,0,1.266-.691l.115-9.383a1.628,1.628,0,0,0-.2-.935,1.2,1.2,0,0,0-.748-.389l-.288-.086v-.288l5.037-1.094.287.288-.086,4.087v7.8a2.235,2.235,0,0,0,.173.979,1.341,1.341,0,0,0,.748.576l.288.086v.288l-5.037.287-.259-1.7a10.264,10.264,0,0,1-2.058,1.31A5.96,5.96,0,0,1,305.241,293.386Z" transform="translate(-274.963 -253.386)" fill="#fff"/>
      <path id="Path_11" data-name="Path 11" d="M353.567,292.582v-.288l.4-.115a1.314,1.314,0,0,0,1.007-1.411v-9.008a1.715,1.715,0,0,0-.2-.936,1.162,1.162,0,0,0-.777-.417l-.432-.115V280l4.921-1.669.288.288.23,1.727a9.061,9.061,0,0,1,2.274-1.468,6.011,6.011,0,0,1,2.5-.576,3.92,3.92,0,0,1,2.921,1.036,4.348,4.348,0,0,1,1.022,3.166V290.8a1.329,1.329,0,0,0,1.094,1.41l.259.087v.288h-6.793v-.288l.374-.115a1.341,1.341,0,0,0,1.007-1.411v-9.181a1.628,1.628,0,0,0-1.842-1.842,4.45,4.45,0,0,0-2.763,1.266V290.8a1.313,1.313,0,0,0,1.008,1.41l.259.087v.288Z" transform="translate(-311.551 -253.014)" fill="#fff"/>
      <path id="Path_12" data-name="Path 12" d="M420.8,270.365h-4.366v3.323a5.944,5.944,0,0,0-1.64-.6,9.022,9.022,0,0,0-1.928-.2,6.438,6.438,0,0,0-3.195.82,6.008,6.008,0,0,0-2.36,2.475,8.76,8.76,0,0,0-.893,4.187,9.236,9.236,0,0,0,.791,4.1,5.319,5.319,0,0,0,2.144,2.36,6.1,6.1,0,0,0,3.051.763,7.231,7.231,0,0,0,2.2-.317,7.008,7.008,0,0,0,1.77-.834l.259,1.036,5.354-.317v-.288l-.259-.087a1.129,1.129,0,0,1-.748-.5,1.9,1.9,0,0,1-.2-.936Zm-4.51,15.44a3.728,3.728,0,0,1-2.216.72,2.766,2.766,0,0,1-2.389-1.4q-.921-1.4-.921-4.821a9.92,9.92,0,0,1,.979-5.022,2.793,2.793,0,0,1,2.36-1.6,3.972,3.972,0,0,1,2.188.691Z" transform="translate(-347.651 -247.589)" fill="#fff"/>
      <path id="Path_13" data-name="Path 13" d="M471.875,291.416h-.633q-1.209,0-1.209-1.295v-6.361a5.23,5.23,0,0,0-1.4-4.073,5.144,5.144,0,0,0-2.931-1.192q-.231.494-.462.929a1.67,1.67,0,0,1,.342.407,5.715,5.715,0,0,1,.475,2.749v2.274q-.633.115-1.208.216t-1.036.187a9.858,9.858,0,0,0-4.346,1.712,3.232,3.232,0,0,0-1.381,2.49,3.361,3.361,0,0,0,1.137,2.735,4.23,4.23,0,0,0,2.806.95,3.946,3.946,0,0,0,2.346-.647,12,12,0,0,0,1.77-1.569,2.754,2.754,0,0,0,.964,1.569,3.105,3.105,0,0,0,2,.59,3.688,3.688,0,0,0,1.828-.374,4.255,4.255,0,0,0,1.194-1.065Zm-5.814-1.151a7.691,7.691,0,0,1-1.194.849,2.226,2.226,0,0,1-1.08.273,1.739,1.739,0,0,1-1.324-.59,2.522,2.522,0,0,1-.547-1.77,3.037,3.037,0,0,1,.792-2.2,4.4,4.4,0,0,1,2.115-1.166q.374-.057.662-.115l.576-.115Z" transform="translate(-382.946 -253.143)" fill="#fff"/>
      <path id="Path_14" data-name="Path 14" d="M502.958,288.757a4.127,4.127,0,0,1-2.864-.921,3.769,3.769,0,0,1-1.022-2.936v-8.221h-1.986v-.288l.691-.115a5.465,5.465,0,0,0,1.54-.576,6.239,6.239,0,0,0,1.281-1.008l2.36-2.619h.288l-.086,4.029h3.223v.576H503.13v8.739a2.277,2.277,0,0,0,.446,1.525,1.434,1.434,0,0,0,1.137.518,1.9,1.9,0,0,0,1.065-.3,4.7,4.7,0,0,0,.921-.82l.288.287a4.247,4.247,0,0,1-1.583,1.555A4.861,4.861,0,0,1,502.958,288.757Z" transform="translate(-409.583 -248.757)" fill="#fff"/>
      <path id="Path_15" data-name="Path 15" d="M528.77,292.644v-.288l.4-.115a1.338,1.338,0,0,0,.791-.518,1.719,1.719,0,0,0,.216-.921v-9.009a1.559,1.559,0,0,0-.216-.907,1.224,1.224,0,0,0-.791-.417l-.4-.087V280.1l5.267-1.7.288.288-.086,4.087v8.058a1.722,1.722,0,0,0,.216.921,1.321,1.321,0,0,0,.763.518l.288.087v.288Z" transform="translate(-431.226 -253.076)" fill="#fff"/>
      <path id="Path_16" data-name="Path 16" d="M555.876,293.014a7.621,7.621,0,0,1-3.8-.907,6.194,6.194,0,0,1-2.49-2.576,8.292,8.292,0,0,1-.878-3.914,7.71,7.71,0,0,1,.936-3.886,6.5,6.5,0,0,1,2.561-2.533,8.023,8.023,0,0,1,7.325-.014,6.432,6.432,0,0,1,2.547,2.518,7.78,7.78,0,0,1,.935,3.914,8.273,8.273,0,0,1-.878,3.928,6.243,6.243,0,0,1-2.475,2.562A7.539,7.539,0,0,1,555.876,293.014Zm0-.576a2.239,2.239,0,0,0,1.612-.576,3.77,3.77,0,0,0,.878-2.044,31.756,31.756,0,0,0,0-8.318,3.77,3.77,0,0,0-.878-2.044,2.24,2.24,0,0,0-1.612-.576,2.292,2.292,0,0,0-1.627.576,3.692,3.692,0,0,0-.892,2.044,31.756,31.756,0,0,0,0,8.318,3.691,3.691,0,0,0,.892,2.044A2.291,2.291,0,0,0,555.876,292.439Z" transform="translate(-444.845 -253.014)" fill="#fff"/>
      <path id="Path_17" data-name="Path 17" d="M595,292.582v-.288l.4-.115a1.314,1.314,0,0,0,1.008-1.411v-9.008a1.719,1.719,0,0,0-.2-.936,1.162,1.162,0,0,0-.777-.417l-.432-.115V280l4.922-1.669.288.288.23,1.727a9.056,9.056,0,0,1,2.274-1.468,6.012,6.012,0,0,1,2.5-.576,3.921,3.921,0,0,1,2.922,1.036,4.348,4.348,0,0,1,1.021,3.166V290.8a1.329,1.329,0,0,0,1.094,1.41l.259.087v.288h-6.793v-.288l.374-.115a1.341,1.341,0,0,0,1.008-1.411v-9.181a1.628,1.628,0,0,0-1.842-1.842,4.449,4.449,0,0,0-2.763,1.266V290.8a1.313,1.313,0,0,0,1.008,1.41l.259.087v.288Z" transform="translate(-476.468 -253.014)" fill="#fff"/>
      <path id="Path_18" data-name="Path 18" d="M434.372,200.721a1.542,1.542,0,0,1,.248.946v18.679h4.424c0-.2,0-.4,0-.6-.011-.755-.016-5.251-.016-6.016V203.124l.124-4.342-.372-.279-5.676,1.334v.31l.4.093A1.519,1.519,0,0,1,434.372,200.721Z" transform="translate(-365.877 -198.503)" fill="#fff"/>
    </g>
  </g>
</svg>
