<svg xmlns="http://www.w3.org/2000/svg" id="Group_49334" data-name="Group 49334" width="271.251" height="126.077" viewBox="0 0 271.251 126.077"><g id="Group_49335" data-name="Group 49335"><path id="Path_71628" data-name="Path 71628" d="M39.215,41.54v-.593l.832-.239a2.771,2.771,0,0,0,1.632-1.068,3.562,3.562,0,0,0,.444-1.9V19.167a3.229,3.229,0,0,0-.444-1.869,2.529,2.529,0,0,0-1.632-.861l-.832-.177v-.594l10.861-3.5.593.593-.177,8.426V37.8a3.54,3.54,0,0,0,.444,1.9,2.724,2.724,0,0,0,1.572,1.068l.593.18v.593Zm7-32.52A4.871,4.871,0,0,1,42.8,7.745,4.194,4.194,0,0,1,41.41,4.51,4.17,4.17,0,0,1,42.8,1.246,4.94,4.94,0,0,1,46.218,0,4.837,4.837,0,0,1,49.6,1.246,4.212,4.212,0,0,1,50.964,4.51,4.236,4.236,0,0,1,49.6,7.745,4.77,4.77,0,0,1,46.218,9.02" transform="translate(7.103)" fill="#fff"></path><path id="Path_71629" data-name="Path 71629" d="M51.774,39.683V39.09l.83-.237a2.507,2.507,0,0,0,1.574-1.01,3.947,3.947,0,0,0,.5-1.9V17.37a3.541,3.541,0,0,0-.416-1.929,2.4,2.4,0,0,0-1.6-.86l-.891-.239V13.75l10.149-3.442.593.594.474,4.035a19.239,19.239,0,0,1,4.481-3.323,10.88,10.88,0,0,1,5.252-1.365,8.052,8.052,0,0,1,4.569,1.158A7.093,7.093,0,0,1,79.9,15a19.147,19.147,0,0,1,5.015-3.471,12.237,12.237,0,0,1,5.25-1.276q4.213,0,6.2,2.017t1.989,6.35V36a2.717,2.717,0,0,0,2.137,2.908l.651.178v.593H87.44V39.09l.593-.178A2.718,2.718,0,0,0,89.6,37.843a3.535,3.535,0,0,0,.446-1.9V17.786a4.944,4.944,0,0,0-.891-3.412,3.823,3.823,0,0,0-2.849-.92,6.986,6.986,0,0,0-3,.683,13.945,13.945,0,0,0-3.056,2.047,9.547,9.547,0,0,1,.386,2.076q.087,1.129.089,2.374V36a2.79,2.79,0,0,0,2.137,2.908l.533.178v.593H69.636V39.09l.832-.237a2.788,2.788,0,0,0,1.572-1.038,3.386,3.386,0,0,0,.446-1.87v-18.1a5.225,5.225,0,0,0-.862-3.383,3.686,3.686,0,0,0-2.936-1.009,6.057,6.057,0,0,0-2.731.683,13.612,13.612,0,0,0-2.848,1.988V36a2.708,2.708,0,0,0,2.076,2.908l.535.178v.593Z" transform="translate(9.378 1.856)" fill="#fff"></path><path id="Path_71630" data-name="Path 71630" d="M93.374,53.332v-.593l.713-.237a2.7,2.7,0,0,0,2.2-2.849V17.371a3.494,3.494,0,0,0-.446-1.96,2.459,2.459,0,0,0-1.632-.891l-.83-.177v-.593l10.089-3.443.593.594.534,1.839a16.945,16.945,0,0,1,4.362-1.839,18.8,18.8,0,0,1,4.956-.653,9.7,9.7,0,0,1,8.1,3.887q3,3.887,3,11.126,0,7.122-3.294,11.216t-9.286,4.095a20.161,20.161,0,0,1-7.892-1.365V49.476a2.756,2.756,0,0,0,2.137,2.967l1.126.3v.593Zm16.2-14.48a5.282,5.282,0,0,0,4.717-3.086q1.75-3.085,1.75-10.266t-1.662-10.057a5.257,5.257,0,0,0-4.806-2.878,10.5,10.5,0,0,0-4.866,1.423V37.9a12.41,12.41,0,0,0,4.866.95" transform="translate(16.913 1.856)" fill="#fff"></path><path id="Path_71631" data-name="Path 71631" d="M129.291,40.573a8.726,8.726,0,0,1-5.788-1.958,6.934,6.934,0,0,1-2.343-5.639q0-2.789,2.848-5.132t8.961-3.532q.95-.177,2.137-.385t2.491-.445V18.795q0-4.036-.979-5.667a3.308,3.308,0,0,0-3.056-1.632,2.894,2.894,0,0,0-2.255.919,5.657,5.657,0,0,0-1.068,3.175l-.118.653a5.7,5.7,0,0,1-1.248,3.739,3.688,3.688,0,0,1-2.787,1.187,3.578,3.578,0,0,1-2.551-.95,3.332,3.332,0,0,1-1.01-2.552,5.516,5.516,0,0,1,1.691-4.095,10.581,10.581,0,0,1,4.48-2.492,21.163,21.163,0,0,1,6.055-.83q5.278,0,8.159,2.581t2.878,8.4V34.342q0,2.672,2.492,2.671h1.305l.534.475a8.763,8.763,0,0,1-2.464,2.2,7.594,7.594,0,0,1-3.767.771,6.4,6.4,0,0,1-4.125-1.217A5.679,5.679,0,0,1,137.775,36a24.654,24.654,0,0,1-3.65,3.234,8.125,8.125,0,0,1-4.834,1.336m3.618-3.62a4.576,4.576,0,0,0,2.225-.565,15.882,15.882,0,0,0,2.463-1.749v-9.97l-1.186.236q-.594.12-1.365.237a9.1,9.1,0,0,0-4.362,2.4,6.26,6.26,0,0,0-1.63,4.539,5.2,5.2,0,0,0,1.126,3.65,3.583,3.583,0,0,0,2.73,1.217" transform="translate(21.946 1.856)" fill="#fff"></path><path id="Path_71632" data-name="Path 71632" d="M160.006,40.573a15.373,15.373,0,0,1-7.329-1.752,12.925,12.925,0,0,1-5.222-5.1,16.235,16.235,0,0,1-1.93-8.218,15.35,15.35,0,0,1,2.108-8.22,14.055,14.055,0,0,1,5.636-5.221,16.719,16.719,0,0,1,7.745-1.811,13.52,13.52,0,0,1,5.816,1.127,8.9,8.9,0,0,1,3.62,2.937,6.557,6.557,0,0,1,1.246,3.769,3.314,3.314,0,0,1-1.009,2.581,3.724,3.724,0,0,1-2.611.92,3.5,3.5,0,0,1-2.79-1.246,5.622,5.622,0,0,1-1.245-3.265,12.8,12.8,0,0,1,.059-2.225,7.493,7.493,0,0,0,0-1.869,2.1,2.1,0,0,0-.742-1.335,2.56,2.56,0,0,0-1.395-.326,6.276,6.276,0,0,0-5.607,3.144q-1.991,3.147-1.988,10.029,0,6,2.225,9.169t6.853,3.175a8.849,8.849,0,0,0,4.51-1.01,12.271,12.271,0,0,0,3.324-3.026l.593.474a11.36,11.36,0,0,1-4.567,5.4,13.66,13.66,0,0,1-7.3,1.9" transform="translate(26.36 1.856)" fill="#fff"></path><path id="Path_71633" data-name="Path 71633" d="M179.838,41.711a8.5,8.5,0,0,1-5.9-1.9q-2.11-1.9-2.107-6.052v-20.3h-4.1V12.87l1.426-.237a11.259,11.259,0,0,0,3.174-1.187,12.875,12.875,0,0,0,2.641-2.076l4.866-5.4h.593l-.177,8.307H186.9v1.187h-6.7V34.827a4.694,4.694,0,0,0,.919,3.145,2.959,2.959,0,0,0,2.343,1.068,3.918,3.918,0,0,0,2.2-.622,9.82,9.82,0,0,0,1.9-1.691l.593.593a8.747,8.747,0,0,1-3.265,3.2,10.011,10.011,0,0,1-5.043,1.187" transform="translate(30.382 0.719)" fill="#fff"></path><path id="Path_71634" data-name="Path 71634" d="M36.361,79.28a15.369,15.369,0,0,1-7.329-1.752,12.924,12.924,0,0,1-5.222-5.1,16.235,16.235,0,0,1-1.93-8.218,15.35,15.35,0,0,1,2.108-8.22,14.055,14.055,0,0,1,5.636-5.221,16.72,16.72,0,0,1,7.745-1.811,13.521,13.521,0,0,1,5.816,1.127,8.9,8.9,0,0,1,3.62,2.937,6.557,6.557,0,0,1,1.246,3.769,3.314,3.314,0,0,1-1.009,2.581,3.726,3.726,0,0,1-2.611.92,3.5,3.5,0,0,1-2.79-1.246A5.622,5.622,0,0,1,40.4,55.779a12.8,12.8,0,0,1,.059-2.225,7.493,7.493,0,0,0,0-1.869,2.1,2.1,0,0,0-.742-1.335,2.561,2.561,0,0,0-1.395-.326,6.276,6.276,0,0,0-5.607,3.144Q30.721,56.316,30.724,63.2q0,6,2.225,9.169T39.8,75.542a8.849,8.849,0,0,0,4.51-1.01,12.272,12.272,0,0,0,3.324-3.026l.593.474a11.36,11.36,0,0,1-4.567,5.4,13.66,13.66,0,0,1-7.3,1.9" transform="translate(3.963 8.868)" fill="#fff"></path><path id="Path_71635" data-name="Path 71635" d="M53.374,79.28a8.726,8.726,0,0,1-5.788-1.958,6.934,6.934,0,0,1-2.343-5.639q0-2.789,2.848-5.132t8.961-3.532q.95-.177,2.137-.385t2.491-.445V57.5q0-4.036-.979-5.667A3.308,3.308,0,0,0,57.645,50.2a2.894,2.894,0,0,0-2.255.919A5.666,5.666,0,0,0,54.322,54.3l-.118.653a5.7,5.7,0,0,1-1.248,3.739,3.688,3.688,0,0,1-2.787,1.187,3.578,3.578,0,0,1-2.551-.95,3.332,3.332,0,0,1-1.01-2.552A5.516,5.516,0,0,1,48.3,52.279a10.581,10.581,0,0,1,4.48-2.492,21.163,21.163,0,0,1,6.054-.83q5.278,0,8.159,2.581t2.878,8.4V73.049q0,2.672,2.492,2.671h1.305l.534.475a8.763,8.763,0,0,1-2.464,2.2,7.594,7.594,0,0,1-3.767.771,6.4,6.4,0,0,1-4.125-1.217,5.679,5.679,0,0,1-1.989-3.234,24.656,24.656,0,0,1-3.65,3.234,8.125,8.125,0,0,1-4.834,1.336m3.618-3.62a4.576,4.576,0,0,0,2.225-.565,15.826,15.826,0,0,0,2.463-1.749v-9.97l-1.186.236q-.594.12-1.365.237a9.1,9.1,0,0,0-4.362,2.4,6.26,6.26,0,0,0-1.63,4.539,5.2,5.2,0,0,0,1.126,3.65,3.584,3.584,0,0,0,2.73,1.217" transform="translate(8.195 8.868)" fill="#fff"></path><path id="Path_71636" data-name="Path 71636" d="M80.811,80.418a8.5,8.5,0,0,1-5.9-1.9q-2.11-1.9-2.107-6.052V52.17H68.7v-.593l1.426-.237A11.259,11.259,0,0,0,73.3,50.153a12.876,12.876,0,0,0,2.641-2.076l4.866-5.4H81.4l-.177,8.307h6.646V52.17h-6.7V73.534a4.694,4.694,0,0,0,.919,3.145,2.959,2.959,0,0,0,2.343,1.068,3.918,3.918,0,0,0,2.2-.622,9.821,9.821,0,0,0,1.9-1.691l.593.593a8.747,8.747,0,0,1-3.265,3.2,10.011,10.011,0,0,1-5.043,1.187" transform="translate(12.445 7.73)" fill="#fff"></path><path id="Path_71637" data-name="Path 71637" d="M94.723,79.28a8.726,8.726,0,0,1-5.788-1.958,6.934,6.934,0,0,1-2.343-5.639q0-2.789,2.848-5.132T98.4,63.02q.95-.177,2.137-.385t2.491-.445V57.5q0-4.036-.979-5.667A3.308,3.308,0,0,0,98.994,50.2a2.894,2.894,0,0,0-2.255.919A5.666,5.666,0,0,0,95.671,54.3l-.118.653A5.7,5.7,0,0,1,94.3,58.689a3.688,3.688,0,0,1-2.787,1.187,3.578,3.578,0,0,1-2.551-.95,3.332,3.332,0,0,1-1.01-2.552,5.516,5.516,0,0,1,1.691-4.095,10.581,10.581,0,0,1,4.48-2.492,21.163,21.163,0,0,1,6.054-.83q5.278,0,8.159,2.581t2.878,8.4V73.049q0,2.672,2.492,2.671h1.305l.534.475a8.763,8.763,0,0,1-2.464,2.2,7.594,7.594,0,0,1-3.767.771,6.4,6.4,0,0,1-4.125-1.217,5.679,5.679,0,0,1-1.989-3.234,24.655,24.655,0,0,1-3.65,3.234,8.125,8.125,0,0,1-4.834,1.336m3.618-3.62a4.576,4.576,0,0,0,2.225-.565,15.825,15.825,0,0,0,2.463-1.749v-9.97l-1.186.236q-.594.12-1.365.237a9.1,9.1,0,0,0-4.362,2.4,6.26,6.26,0,0,0-1.63,4.539,5.2,5.2,0,0,0,1.126,3.65,3.585,3.585,0,0,0,2.73,1.217" transform="translate(15.685 8.868)" fill="#fff"></path><path id="Path_71638" data-name="Path 71638" d="M128.8,92.5a5.622,5.622,0,0,1-3.769-1.187,3.8,3.8,0,0,1-1.395-3.027,3.324,3.324,0,0,1,1.187-2.669,4.015,4.015,0,0,1,2.671-1.01,4.659,4.659,0,0,1,2.492.624,5.782,5.782,0,0,1,1.781,1.809l.416.476q1.3,1.779,2.609-.06c.358-.593.762-1.375,1.218-2.345s.979-2.264,1.572-3.886L126.066,53.686a8.187,8.187,0,0,0-.891-1.81,3.615,3.615,0,0,0-1.544-1.158l-1.068-.415V49.71H137.34v.534l-1.186.475q-1.308.416-1.336,1.335a6.51,6.51,0,0,0,.445,2.285l6.171,16.022,5.875-16.2a5.194,5.194,0,0,0,.357-2.284q-.122-.919-1.483-1.276l-1.247-.3V49.71h8.25V50.3l-1.306.415a3.427,3.427,0,0,0-1.9,1.187,9.008,9.008,0,0,0-1.01,2.135l-9.552,26.052a38.14,38.14,0,0,1-4.631,9.317A7.166,7.166,0,0,1,128.8,92.5" transform="translate(22.2 9.004)" fill="#fff"></path><path id="Path_71639" data-name="Path 71639" d="M158.121,79.28A18.492,18.492,0,0,1,152.9,78.6a24.171,24.171,0,0,1-4.272-1.691l.058-7.062h.594l2.017,3.561a10.657,10.657,0,0,0,2.878,3.53,6.58,6.58,0,0,0,4.006,1.158,7.625,7.625,0,0,0,4.6-1.276,4.016,4.016,0,0,0,1.753-3.412,4.342,4.342,0,0,0-1.246-3.206,11.35,11.35,0,0,0-4.631-2.254l-2.491-.772a12.241,12.241,0,0,1-5.7-3.323,7.846,7.846,0,0,1-2.078-5.519,8.549,8.549,0,0,1,3.085-6.646q3.086-2.73,8.844-2.73a18.17,18.17,0,0,1,4.361.5,17.13,17.13,0,0,1,3.945,1.513l-.356,6.409h-.593L165.6,53.7a8.929,8.929,0,0,0-2.225-2.759,5.589,5.589,0,0,0-3.294-.8,6.972,6.972,0,0,0-3.8,1.127,3.582,3.582,0,0,0-1.781,3.206,3.855,3.855,0,0,0,1.513,3.2,15.387,15.387,0,0,0,4.481,2.2l2.669.77a12.214,12.214,0,0,1,6.112,3.592,8.479,8.479,0,0,1,1.841,5.489,8.309,8.309,0,0,1-3.413,6.943q-3.414,2.61-9.584,2.611" transform="translate(26.878 8.868)" fill="#fff"></path><path id="Path_71640" data-name="Path 71640" d="M179.838,80.418a8.5,8.5,0,0,1-5.9-1.9q-2.11-1.9-2.107-6.052V52.17h-4.1v-.593l1.426-.237a11.259,11.259,0,0,0,3.174-1.187,12.876,12.876,0,0,0,2.641-2.076l4.866-5.4h.593l-.177,8.307H186.9V52.17h-6.7V73.534a4.694,4.694,0,0,0,.919,3.145,2.959,2.959,0,0,0,2.343,1.068,3.918,3.918,0,0,0,2.2-.622,9.82,9.82,0,0,0,1.9-1.691l.593.593a8.747,8.747,0,0,1-3.265,3.2,10.011,10.011,0,0,1-5.043,1.187" transform="translate(30.382 7.73)" fill="#fff"></path><path id="Path_71641" data-name="Path 71641" d="M.06,112.458v-.593l.771-.178a3.474,3.474,0,0,0,1.78-1.038,2.816,2.816,0,0,0,.653-1.929q0-2.2.03-4.362T3.323,100V85.1H0v-.653l1.306-.236a2.32,2.32,0,0,0,1.721-.832A4.719,4.719,0,0,0,3.8,81.422a13.331,13.331,0,0,1,1.749-4.064,20.913,20.913,0,0,1,2.641-3.234,13.161,13.161,0,0,1,4.778-3,15.316,15.316,0,0,1,4.956-.86,9.546,9.546,0,0,1,4.331.979A3.715,3.715,0,0,1,23.262,77a3.676,3.676,0,0,1-2.669.919,4.693,4.693,0,0,1-2.613-.771,7.859,7.859,0,0,1-2.314-2.73l-.83-1.01a1.667,1.667,0,0,0-1.306-.8q-.652.03-.948.98a40.459,40.459,0,0,0-.624,4.865q-.209,2.79-.207,5.459H18.4V85.1H11.751v23.5a2.822,2.822,0,0,0,2.372,2.908l1.484.357v.593Z" transform="translate(0 12.728)" fill="#fff"></path><path id="Path_71642" data-name="Path 71642" d="M30.151,111.392a15.714,15.714,0,0,1-7.833-1.87,12.775,12.775,0,0,1-5.134-5.312,17.093,17.093,0,0,1-1.809-8.07A15.9,15.9,0,0,1,17.3,88.13a13.392,13.392,0,0,1,5.282-5.223,15.464,15.464,0,0,1,7.566-1.839,15.5,15.5,0,0,1,7.536,1.811,13.255,13.255,0,0,1,5.253,5.192,16.036,16.036,0,0,1,1.928,8.071,17.046,17.046,0,0,1-1.81,8.1,12.872,12.872,0,0,1-5.1,5.282,15.548,15.548,0,0,1-7.8,1.87m0-1.187a4.614,4.614,0,0,0,3.323-1.187,7.763,7.763,0,0,0,1.809-4.213,49.539,49.539,0,0,0,.565-8.546,50,50,0,0,0-.565-8.6,7.772,7.772,0,0,0-1.809-4.214,4.623,4.623,0,0,0-3.323-1.186A4.725,4.725,0,0,0,26.8,83.441a7.607,7.607,0,0,0-1.839,4.214,49.879,49.879,0,0,0-.565,8.6,49.419,49.419,0,0,0,.565,8.546,7.6,7.6,0,0,0,1.839,4.213,4.715,4.715,0,0,0,3.353,1.187" transform="translate(2.785 14.684)" fill="#fff"></path><path id="Path_71643" data-name="Path 71643" d="M51.7,111.338a10.013,10.013,0,0,1-4.244-.891,6.522,6.522,0,0,1-3.025-2.878,10.394,10.394,0,0,1-1.039-5.251l.177-15.251a3.163,3.163,0,0,0-.475-1.958,2.585,2.585,0,0,0-1.484-.832L40.9,84.04v-.593L51.52,81.369l.593.594-.3,8.426v14.3a3.378,3.378,0,0,0,1.1,2.79,4.243,4.243,0,0,0,2.76.891,8.654,8.654,0,0,0,2.967-.475,10.672,10.672,0,0,0,2.611-1.424l.237-19.346a3.342,3.342,0,0,0-.417-1.929,2.476,2.476,0,0,0-1.541-.8l-.593-.178v-.594l10.385-2.255.593.594-.177,8.426v16.082a4.608,4.608,0,0,0,.355,2.017,2.767,2.767,0,0,0,1.544,1.187l.593.178v.593l-10.386.593-.535-3.5a21.106,21.106,0,0,1-4.241,2.7,12.3,12.3,0,0,1-5.371,1.1" transform="translate(7.408 14.739)" fill="#fff"></path><path id="Path_71644" data-name="Path 71644" d="M68.026,110.5v-.593l.83-.237a2.709,2.709,0,0,0,2.079-2.908V88.189a3.544,3.544,0,0,0-.416-1.929,2.4,2.4,0,0,0-1.6-.86l-.891-.239v-.593l10.149-3.442.593.594.474,3.56a18.667,18.667,0,0,1,4.689-3.026,12.4,12.4,0,0,1,5.163-1.187A8.08,8.08,0,0,1,95.116,83.2q2.107,2.135,2.107,6.527v17.091a2.741,2.741,0,0,0,2.255,2.908l.533.178v.593h-14v-.593l.77-.237a2.761,2.761,0,0,0,2.076-2.908V87.834q0-3.8-3.8-3.8-2.61,0-5.7,2.611v20.176a2.708,2.708,0,0,0,2.078,2.908l.534.178v.593Z" transform="translate(12.322 14.684)" fill="#fff"></path><path id="Path_71645" data-name="Path 71645" d="M158.61,112.53a8.5,8.5,0,0,1-5.9-1.9q-2.11-1.9-2.107-6.052v-20.3h-4.1v-.593l1.426-.237a11.259,11.259,0,0,0,3.174-1.187,12.876,12.876,0,0,0,2.641-2.076l4.866-5.4h.593l-.177,8.307h6.646v1.187h-6.7v21.364a4.694,4.694,0,0,0,.919,3.145,2.959,2.959,0,0,0,2.343,1.068,3.91,3.91,0,0,0,2.2-.624,9.773,9.773,0,0,0,1.9-1.69l.593.593a8.748,8.748,0,0,1-3.265,3.2,10.011,10.011,0,0,1-5.043,1.187" transform="translate(26.537 13.547)" fill="#fff"></path><path id="Path_71646" data-name="Path 71646" d="M164.038,110.493V109.9l.83-.237a2.767,2.767,0,0,0,1.632-1.069,3.56,3.56,0,0,0,.444-1.9V88.121a3.23,3.23,0,0,0-.444-1.87,2.534,2.534,0,0,0-1.632-.86l-.83-.178v-.594l10.861-3.5.593.594-.178,8.426v16.616a3.536,3.536,0,0,0,.445,1.9,2.722,2.722,0,0,0,1.572,1.069l.593.178v.593Z" transform="translate(29.713 14.693)" fill="#fff"></path><path id="Path_71647" data-name="Path 71647" d="M191.577,111.392a15.714,15.714,0,0,1-7.833-1.87,12.775,12.775,0,0,1-5.134-5.312,17.093,17.093,0,0,1-1.809-8.07,15.9,15.9,0,0,1,1.929-8.012,13.392,13.392,0,0,1,5.282-5.223,16.535,16.535,0,0,1,15.1-.028,13.255,13.255,0,0,1,5.253,5.192,16.036,16.036,0,0,1,1.928,8.071,17.046,17.046,0,0,1-1.809,8.1,12.872,12.872,0,0,1-5.1,5.282,15.549,15.549,0,0,1-7.8,1.87m0-1.187a4.614,4.614,0,0,0,3.323-1.187,7.763,7.763,0,0,0,1.809-4.213,49.538,49.538,0,0,0,.565-8.546,50,50,0,0,0-.565-8.6,7.772,7.772,0,0,0-1.809-4.214,4.623,4.623,0,0,0-3.323-1.186,4.725,4.725,0,0,0-3.353,1.186,7.607,7.607,0,0,0-1.839,4.214,49.879,49.879,0,0,0-.565,8.6,49.419,49.419,0,0,0,.565,8.546,7.6,7.6,0,0,0,1.839,4.213,4.715,4.715,0,0,0,3.353,1.187" transform="translate(32.024 14.684)" fill="#fff"></path><path id="Path_71648" data-name="Path 71648" d="M202.573,110.5v-.593l.83-.237a2.709,2.709,0,0,0,2.079-2.908V88.189a3.544,3.544,0,0,0-.416-1.929,2.4,2.4,0,0,0-1.6-.86l-.891-.239v-.593l10.15-3.442.593.594.474,3.56a18.68,18.68,0,0,1,4.688-3.026,12.4,12.4,0,0,1,5.164-1.187,8.08,8.08,0,0,1,6.023,2.137q2.107,2.135,2.107,6.527v17.091a2.74,2.74,0,0,0,2.255,2.908l.533.178v.593h-14v-.593l.77-.237a2.761,2.761,0,0,0,2.076-2.908V87.834q0-3.8-3.8-3.8-2.61,0-5.7,2.611v20.176a2.708,2.708,0,0,0,2.076,2.908l.535.178v.593Z" transform="translate(36.693 14.684)" fill="#fff"></path><path id="Path_71649" data-name="Path 71649" d="M125,109.572a3.9,3.9,0,0,1-.416-1.929V78.626l.07-2.423h-8.14V83.61a12.311,12.311,0,0,0-3.383-1.246,18.613,18.613,0,0,0-3.976-.415,13.26,13.26,0,0,0-6.587,1.691,12.374,12.374,0,0,0-4.866,5.1,18.067,18.067,0,0,0-1.84,8.633,19.056,19.056,0,0,0,1.632,8.457,10.951,10.951,0,0,0,4.421,4.865,12.574,12.574,0,0,0,6.291,1.574,14.905,14.905,0,0,0,4.539-.653,14.45,14.45,0,0,0,3.649-1.721l.535,2.135,10.148-.652v-.593l-.534-.18A2.317,2.317,0,0,1,125,109.572m-8.784-.979a7.683,7.683,0,0,1-4.569,1.484,5.7,5.7,0,0,1-4.925-2.878q-1.9-2.877-1.9-9.939T106.838,86.9q2.018-3.294,4.869-3.294a8.2,8.2,0,0,1,4.508,1.424Z" transform="translate(17.364 13.803)" fill="#fff"></path><path id="Path_71650" data-name="Path 71650" d="M113.29,42.9a2.948,2.948,0,0,1,.475,1.809V76.458c0,.033-.011.059-.012.093v3.7h8.488V74.88c0-.907-.006-1.811-.019-2.725q-.03-2.165-.031-4.361V47.5l.239-8.307-.711-.534-10.861,2.55V41.8l.77.178a2.9,2.9,0,0,1,1.662.92" transform="translate(20.08 7.002)" fill="#fff"></path><path id="Path_71651" data-name="Path 71651" d="M151.466,107.811h-1.305q-2.491,0-2.492-2.671V92.026q0-5.816-2.877-8.4a10.675,10.675,0,0,0-6.106-2.447l-1.056,1.8a3.316,3.316,0,0,1,.871.944q.98,1.634.979,5.667v4.688q-1.3.237-2.492.445c-.791.139-1.5.267-2.138.385q-6.109,1.189-8.96,3.532t-2.847,5.133a6.931,6.931,0,0,0,2.342,5.638,8.727,8.727,0,0,0,5.786,1.958,8.128,8.128,0,0,0,4.837-1.336,24.515,24.515,0,0,0,3.647-3.234,5.691,5.691,0,0,0,1.991,3.234,6.4,6.4,0,0,0,4.125,1.218,7.6,7.6,0,0,0,3.767-.772A8.755,8.755,0,0,0,152,108.287Zm-11.987-2.373a15.709,15.709,0,0,1-2.464,1.75,4.577,4.577,0,0,1-2.224.563,3.583,3.583,0,0,1-2.73-1.217,5.2,5.2,0,0,1-1.127-3.649,6.261,6.261,0,0,1,1.631-4.54,9.081,9.081,0,0,1,4.362-2.4c.513-.078.969-.158,1.365-.237l1.186-.237Z" transform="translate(22.287 14.705)" fill="#fff"></path></g></svg>